<svg width="508" height="262" viewBox="0 0 508 262" fill="none" xmlns="http://www.w3.org/2000/svg">
<rect x="114.94" y="42.7642" width="255.905" height="58.3085" rx="29.1543" transform="rotate(-9.61979 114.94 42.7642)" fill="#FFC997" fill-opacity="0.71"/>
<path d="M169.85 70.0898C169.89 70.5413 169.784 70.8892 169.532 71.1335C169.28 71.3779 168.973 71.5124 168.61 71.5372C168.269 71.5767 167.954 71.5018 167.665 71.3125C167.373 71.1053 167.198 70.7775 167.141 70.329C166.821 67.3588 166.527 64.8698 166.26 62.8621C165.458 63.9696 164.414 64.733 163.129 65.1525C161.838 65.5364 160.651 65.5634 159.568 65.2336C158.483 64.886 157.593 64.2853 156.898 63.4315C156.201 62.56 155.761 61.5347 155.58 60.3556C155.325 58.639 155.737 57.0662 156.814 55.6371C157.324 54.9642 158.044 54.4022 158.976 53.951C159.904 53.482 160.966 53.2013 162.16 53.1089C162.956 53.0473 163.625 53.0989 164.166 53.2638C164.359 53.3227 164.613 53.4171 164.929 53.5469L165.406 53.7685C165.537 53.673 165.689 53.6013 165.865 53.5533C166.236 53.472 166.576 53.5335 166.886 53.7376C167.21 53.921 167.413 54.1982 167.494 54.5694C168.456 58.7322 169.242 63.9057 169.85 70.0898ZM162.302 62.5432C162.946 62.3424 163.48 61.9769 163.903 61.4469C164.344 60.9139 164.638 60.2683 164.785 59.5103C164.887 59.0347 164.889 58.017 164.79 56.4575C164.769 56.4427 164.739 56.4294 164.7 56.4176L163.839 56.0412L163.366 55.8464C163.155 55.7905 162.833 55.781 162.399 55.8179C161.567 55.8855 160.853 56.0524 160.257 56.3184C159.459 56.692 158.908 57.2254 158.603 57.9185C158.296 58.5937 158.184 59.2819 158.266 59.9828C158.36 60.6451 158.593 61.2104 158.966 61.6789C159.338 62.1473 159.806 62.4713 160.368 62.651C160.945 62.8099 161.589 62.7739 162.302 62.5432ZM181.968 69.0532C179.873 69.9949 177.907 69.8057 176.07 68.4856C174.567 67.4023 173.415 65.7461 172.616 63.517C172.239 62.5911 171.993 61.5697 171.877 60.4529C171.758 59.3183 171.738 58.2309 171.819 57.1908C171.899 56.1507 172.167 55.1338 172.621 54.1402C173.073 53.1288 173.673 52.2849 174.419 51.6084C174.547 51.4951 174.703 51.3863 174.886 51.2818C175.067 51.1595 175.233 51.058 175.385 50.9774L175.812 50.74C175.948 50.6802 176.026 50.6488 176.043 50.6458C176.512 50.383 176.973 50.3966 177.425 50.6865C177.636 50.6325 177.949 50.5885 178.365 50.5547C178.763 50.5239 179.033 50.4964 179.176 50.4722C180.769 50.5689 182.171 51.541 183.382 53.3887C184.373 54.9072 185.055 56.7162 185.429 58.8157C185.816 60.9865 185.781 62.9446 185.325 64.6899C184.761 66.8752 183.642 68.3296 181.968 69.0532ZM180.892 66.5961C181.761 66.2104 182.366 65.3472 182.707 64.0063C183.06 62.6267 183.076 61.0475 182.757 59.2687C182.443 57.5256 181.901 56.0593 181.131 54.87C180.415 53.7816 179.715 53.222 179.032 53.1912C178.681 53.1773 178.332 53.2273 177.985 53.3411C177.652 53.4342 177.272 53.5169 176.845 53.5894C176.667 53.6196 176.482 53.6142 176.292 53.5731C176.277 53.5939 176.261 53.6058 176.243 53.6089C175.606 54.1751 175.133 54.9519 174.823 55.9391C174.529 56.9056 174.407 57.971 174.458 59.1355C174.509 60.3001 174.742 61.4611 175.158 62.6187C175.775 64.3105 176.604 65.5264 177.646 66.2663C178.649 66.9945 179.731 67.1044 180.892 66.5961ZM195.899 66.5821C195.79 67.0221 195.574 67.3154 195.25 67.4618C194.945 67.6053 194.618 67.624 194.27 67.518C193.925 67.4298 193.645 67.239 193.431 66.9454C193.216 66.6519 193.173 66.2925 193.303 65.8673C193.467 65.2161 193.767 64.3864 194.201 63.378C194.643 62.3131 194.933 61.5859 195.068 61.1963L199.049 50.1284L200.925 45.1363C201.072 44.7081 201.31 44.4385 201.64 44.3277C201.987 44.2138 202.327 44.2203 202.661 44.3472C202.994 44.474 203.251 44.6961 203.433 45.0135C203.612 45.3131 203.618 45.6696 203.45 46.0831L201.623 51.0394L199.371 57.0576L197.629 62.0271C197.469 62.494 197.157 63.2985 196.69 64.4407C196.31 65.3301 196.046 66.0439 195.899 66.5821ZM191.747 54.2531C192.177 54.1984 192.561 53.9775 192.899 53.5903C193.255 53.2001 193.501 52.7092 193.639 52.1176C193.766 51.5646 193.763 51.116 193.631 50.7717C193.565 50.5996 193.485 50.5032 193.39 50.4827C193.122 50.4181 192.732 50.4385 192.218 50.5439C192.147 50.5559 192.005 50.589 191.795 50.6431C191.584 50.6971 191.443 50.7302 191.372 50.7423C191.286 50.7752 191.189 50.8007 191.082 50.8188C190.966 50.8934 190.869 50.965 190.789 51.0336L190.393 51.2931C190.194 51.4185 190.065 51.5228 190.006 51.6062C189.618 52.1301 189.634 52.7139 190.055 53.3575C190.518 54.0306 191.081 54.3292 191.747 54.2531ZM192.093 56.9439C191.214 57.0563 190.392 56.9115 189.627 56.5095C188.862 56.1075 188.255 55.5506 187.804 54.8388C187.339 54.1478 187.087 53.3656 187.049 52.4922C187.008 51.601 187.261 50.7699 187.809 49.9989C188.045 49.6655 188.394 49.3407 188.853 49.0245L189.027 48.9126C189.255 48.5257 189.593 48.3034 190.041 48.2458C190.219 48.2156 190.458 48.1659 190.758 48.0967L191.658 47.8892C192.525 47.7056 193.281 47.6783 193.926 47.8072C195.029 48.0419 195.787 48.7291 196.2 49.8689C196.488 50.7 196.511 51.6492 196.27 52.7165C196.112 53.4032 195.846 54.0531 195.474 54.6662C195.101 55.2793 194.628 55.7901 194.056 56.1987C193.484 56.6073 192.829 56.8557 192.093 56.9439ZM205.61 64.9911C204.281 64.9413 203.193 64.5209 202.344 63.73C201.51 62.9182 200.996 61.9421 200.803 60.8017C200.636 59.7118 200.783 58.6329 201.244 57.565C201.722 56.4941 202.488 55.6586 203.541 55.0585C203.859 54.8764 204.259 54.7535 204.743 54.6898C204.761 54.6867 204.898 54.6819 205.153 54.6753L205.367 54.639C205.845 54.5397 206.253 54.6722 206.589 55.0368C207.008 55.0208 207.38 55.0494 207.704 55.1228C208.634 55.3134 209.369 55.7021 209.909 56.2889C210.466 56.8726 210.839 57.5609 211.028 58.3537C211.218 59.1464 211.226 59.9516 211.053 60.7691C210.877 61.5688 210.533 62.2962 210.021 62.9512C209.526 63.6033 208.899 64.122 208.14 64.5073C207.395 64.8718 206.552 65.0331 205.61 64.9911ZM205.7 62.2812C206.401 62.309 206.994 62.1262 207.477 61.7326C207.957 61.3213 208.271 60.7916 208.417 60.1435C208.555 59.5519 208.505 59.038 208.266 58.6019C208.045 58.1628 207.658 57.8801 207.105 57.7539C206.974 57.7394 206.783 57.7444 206.53 57.7688C205.79 57.8392 205.412 57.8759 205.394 57.8789C205.1 57.8738 204.828 57.7824 204.578 57.6049C204.139 57.9359 203.825 58.3556 203.636 58.8642C203.462 59.3519 203.41 59.8557 203.48 60.3754C203.574 60.9278 203.807 61.3832 204.179 61.7417C204.566 62.0793 205.073 62.2592 205.7 62.2812ZM222.437 61.1217C221.597 56.1682 220.881 52.642 220.287 50.5431C220.233 50.3323 220.225 50.1228 220.263 49.9147C220.23 49.8287 220.206 49.7411 220.191 49.652C220.109 49.2808 220.171 48.9405 220.375 48.6309C220.579 48.3214 220.867 48.126 221.238 48.0447C222.141 47.8551 223.768 47.5609 226.12 47.1623C227.367 46.9509 228.367 46.7907 229.118 46.6816C229.566 46.6239 229.926 46.5814 230.196 46.5539C230.36 46.5445 230.496 46.5397 230.606 46.5394C230.698 46.5421 230.792 46.5537 230.887 46.5743C231.47 46.6588 231.87 47.0217 232.089 47.6628C232.128 47.7845 232.173 47.9419 232.224 48.1349C232.293 48.4348 232.371 48.8431 232.459 49.3598C232.601 50.1973 232.781 51.3674 232.999 52.8701C233.093 53.5324 233.2 54.3299 233.322 55.2625C233.419 56.0525 233.522 56.8232 233.631 57.5746C233.737 58.3082 233.813 58.8086 233.858 59.0759C233.934 59.5213 233.857 59.8825 233.629 60.1595C233.398 60.4186 233.105 60.5784 232.748 60.6388C232.392 60.6992 232.062 60.6451 231.759 60.4766C231.452 60.2902 231.261 59.9743 231.186 59.5289C231.149 59.3151 231.081 58.8592 230.981 58.1613C230.921 57.695 230.849 57.1663 230.767 56.5753C230.683 55.9665 230.601 55.3754 230.522 54.8022C230.44 54.2112 230.37 53.6915 230.313 53.243C230.101 51.7758 229.925 50.6324 229.786 49.8128L229.709 49.3584C229.656 49.3675 229.583 49.3707 229.491 49.368C228.775 49.4709 227.802 49.6266 226.573 49.835C225.433 50.0283 224.267 50.235 223.076 50.4552C223.626 52.5067 224.303 55.9112 225.11 60.6687C225.185 61.1141 225.109 61.4753 224.881 61.7523C224.65 62.0114 224.356 62.1711 224 62.2315C223.644 62.2919 223.314 62.2379 223.01 62.0694C222.704 61.883 222.513 61.5671 222.437 61.1217ZM239.084 63.7717C238.807 62.5722 238.547 61.3607 238.303 60.1373C238.131 59.2316 237.951 58.2813 237.765 57.2865C237.578 56.2917 237.398 55.3414 237.226 54.4357C237.072 53.527 236.932 52.7534 236.805 52.115C236.505 51.9643 236.29 51.7257 236.162 51.3992C236.03 51.0549 236.029 50.7252 236.159 50.4099L236.376 49.9057C236.198 49.0742 236.028 48.2874 235.866 47.545C235.785 47.1739 235.846 46.8335 236.05 46.524C236.251 46.1966 236.529 45.9938 236.882 45.9156C237.2 45.8434 237.5 45.8842 237.783 46.0379C238.083 46.1886 238.304 46.4078 238.444 46.6957C238.598 46.5229 238.762 46.3576 238.937 46.1996C239.915 45.264 240.936 44.6878 241.999 44.4709C243.077 44.2333 244.084 44.3374 245.021 44.7835C245.875 45.1704 246.625 45.7581 247.272 46.5466C247.916 47.3173 248.424 48.2028 248.795 49.203C249.618 51.3548 249.714 53.3274 249.083 55.1207C248.711 56.1734 248.106 57.0367 247.267 57.7105C246.446 58.3813 245.404 58.7778 244.142 58.9001C243.655 58.946 243.245 58.9605 242.912 58.9436C242.582 58.9445 242.255 58.9083 241.931 58.8349C241.625 58.7585 241.247 58.6392 240.798 58.477L240.74 58.4593C241.072 60.1995 241.402 61.7658 241.729 63.1584C241.823 63.6008 241.755 63.9605 241.527 64.2374C241.317 64.5113 241.035 64.6874 240.682 64.7656C240.349 64.8586 240.022 64.8224 239.701 64.6569C239.383 64.5092 239.177 64.2142 239.084 63.7717ZM243.849 56.2002C245.219 56.0597 246.107 55.4052 246.513 54.2364C246.917 53.0498 246.835 51.6982 246.266 50.1815C246 49.4751 245.649 48.8656 245.214 48.3527C244.796 47.8369 244.359 47.4712 243.9 47.2556C242.928 46.8155 241.896 47.1095 240.806 48.1376C240.16 48.7603 239.63 49.4733 239.216 50.2767L240.075 54.8602C240.513 55.2809 240.743 55.4986 240.763 55.5134C240.871 55.6052 241.198 55.7514 241.745 55.9519C242.057 56.064 242.3 56.142 242.472 56.1861C242.662 56.2272 242.85 56.2505 243.034 56.2559C243.236 56.2583 243.508 56.2397 243.849 56.2002ZM257.584 56.3743C256.714 56.6501 255.838 56.6703 254.955 56.435C254.086 56.1789 253.274 55.6568 252.517 54.8685C251.915 54.2374 251.511 53.6368 251.304 53.0669C251.095 52.4792 250.934 51.7458 250.821 50.8667C250.588 49.055 250.763 47.4397 251.347 46.0209C251.947 44.5812 252.874 43.5076 254.128 42.8C255.362 42.0776 256.748 41.8153 258.284 42.0131C259.803 42.214 261.277 42.8531 262.706 43.9307C263.022 44.1705 263.202 44.479 263.248 44.8562C263.293 45.2334 263.205 45.5783 262.983 45.8909C262.865 46.0576 262.705 46.1947 262.503 46.3022C262.548 46.4595 262.59 46.654 262.629 46.8857C262.654 47.0282 262.676 47.1618 262.697 47.2866C262.704 47.4321 262.708 47.5138 262.711 47.5316L262.752 47.7722C262.815 48.0364 262.893 48.3348 262.986 48.6673C263.065 49.0207 263.126 49.276 263.171 49.4334C263.208 49.6472 263.278 49.901 263.383 50.1949C263.485 50.4709 263.564 50.6683 263.621 50.7869C263.872 51.2943 264.569 51.946 265.712 52.7421C266.072 53.0293 266.256 53.3556 266.263 53.7211C266.287 54.0835 266.187 54.4121 265.962 54.7068C265.755 54.9985 265.475 55.1835 265.121 55.2617C264.789 55.3548 264.428 55.2785 264.038 55.033C262.761 54.0946 261.885 53.2533 261.41 52.5088C261.363 52.6635 261.304 52.8018 261.233 52.9238C260.858 53.7389 260.357 54.4563 259.728 55.076C259.1 55.6957 258.385 56.1285 257.584 56.3743ZM256.748 53.7116C257.567 53.4627 258.217 52.8117 258.699 51.7586C259.177 50.6877 259.451 49.2757 259.52 47.5226L259.502 47.4157C259.49 47.3444 259.483 47.2449 259.479 47.1171C259.458 46.9924 259.437 46.8677 259.416 46.743C259.376 46.4014 259.368 46.137 259.391 45.9497C259.415 45.7625 259.475 45.5781 259.573 45.3966C259.584 45.358 259.598 45.3282 259.612 45.3074C258.06 44.5808 256.69 44.5563 255.503 45.234C254.818 45.6251 254.286 46.2743 253.909 47.1815C253.528 48.0709 253.422 49.1794 253.592 50.507C253.65 50.9555 253.712 51.3207 253.778 51.6028C253.841 51.8671 253.927 52.1001 254.034 52.3018C254.159 52.5005 254.343 52.7169 254.584 52.951C255.278 53.6948 256 53.9483 256.748 53.7116ZM278.47 52.4494C276.243 50.6639 274.334 48.9712 272.743 47.3712L270.896 50.1037L270.878 50.1617C271.089 50.9693 271.318 51.7827 271.567 52.602C271.711 53.0176 271.689 53.3786 271.503 53.6852C271.314 53.9739 271.044 54.1663 270.694 54.2623C270.364 54.3731 270.034 54.3741 269.704 54.265C269.389 54.1352 269.158 53.8535 269.011 53.4202C268.699 52.4465 268.42 51.449 268.174 50.4276C267.922 49.3706 267.747 48.557 267.65 47.9868C267.524 47.3484 267.397 46.655 267.27 45.9066C267.14 45.1404 267.014 44.3921 266.89 43.6615C266.781 42.9101 266.676 42.2404 266.577 41.6524C266.501 41.207 266.579 40.8547 266.81 40.5956C267.038 40.3186 267.33 40.15 267.687 40.0896C268.043 40.0292 268.374 40.0921 268.681 40.2785C268.984 40.447 269.174 40.754 269.249 41.1994C269.343 41.7518 269.497 42.6605 269.711 43.9256C269.911 45.2115 270.053 46.104 270.138 46.6029C273.211 42.5627 274.978 40.2285 275.44 39.6003C275.688 39.2282 275.985 39.0313 276.329 39.0096C276.692 38.9848 277.019 39.076 277.311 39.2832C277.602 39.4904 277.796 39.7691 277.892 40.1194C277.985 40.4519 277.897 40.7968 277.628 41.1541C276.92 42.1722 275.868 43.5328 274.47 45.2362C276.026 46.8422 277.918 48.5469 280.149 50.3501C280.506 50.6195 280.687 50.928 280.691 51.2756C280.694 51.6232 280.584 51.9444 280.359 52.2392C280.131 52.5161 279.84 52.6937 279.487 52.7719C279.151 52.8471 278.812 52.7396 278.47 52.4494ZM288.407 49.8852C288.483 50.3307 288.405 50.683 288.174 50.9421C287.943 51.2012 287.648 51.3521 287.288 51.3946C286.932 51.455 286.6 51.3921 286.294 51.2057C285.987 51.0194 285.798 50.7124 285.725 50.2848C285.029 45.6369 284.46 42.2782 284.018 40.2086C283.732 40.2569 283.232 40.3325 282.516 40.4355C281.783 40.5415 281.22 40.6277 280.828 40.6942C280.383 40.7697 280.03 40.6919 279.771 40.4609C279.512 40.2299 279.352 39.9362 279.292 39.5798C279.249 39.2204 279.321 38.8874 279.507 38.5809C279.694 38.2744 280.001 38.0849 280.428 38.0124C285.183 37.2981 288.233 36.7995 289.578 36.5165C290.021 36.4232 290.38 36.4906 290.657 36.7186C290.931 36.9288 291.098 37.2121 291.159 37.5684C291.234 37.904 291.189 38.2324 291.023 38.5537C290.876 38.872 290.581 39.0778 290.138 39.1712C289.111 39.382 287.964 39.5946 286.699 39.809C287.148 41.9143 287.717 45.273 288.407 49.8852ZM296.108 49.7623C295.573 49.5231 295.31 49.1093 295.32 48.521C295.297 48.4884 295.282 48.4543 295.276 48.4186C295.126 47.8575 294.975 47.2414 294.825 46.5704C294.689 45.8785 294.561 45.2311 294.441 44.6283C294.335 44.0047 294.261 43.5132 294.218 43.1538C294.182 42.94 294.135 42.6088 294.077 42.1604C294.038 41.7089 293.981 41.2143 293.908 40.6768C293.85 40.1184 293.787 39.5793 293.717 39.0595C293.644 38.522 293.586 38.0735 293.544 37.7141C293.516 37.3339 293.495 37.0992 293.479 37.0101C293.431 36.6151 293.522 36.288 293.753 36.0289C293.999 35.749 294.3 35.5788 294.656 35.5184C295.013 35.458 295.349 35.5477 295.664 35.7875C295.813 35.9089 295.955 36.2605 296.091 36.8425C296.223 37.4067 296.347 38.0822 296.462 38.8693C296.594 39.6533 296.702 40.4507 296.785 41.2616C296.882 42.0516 296.964 42.7526 297.031 43.3644C297.095 43.9585 297.141 44.3357 297.168 44.4961L298.653 41.7422C299.957 39.2667 300.894 37.064 301.465 35.1342C301.633 34.7208 301.936 34.4496 302.372 34.3206C302.505 34.243 302.651 34.1817 302.808 34.1367C303.179 34.0555 303.52 34.1169 303.829 34.3211C304.154 34.5044 304.356 34.7816 304.438 35.1528C304.805 36.8869 305.179 38.9315 305.56 41.2865C305.935 43.8257 306.245 45.6521 306.488 46.7656C306.582 47.208 306.514 47.5677 306.286 47.8447C306.076 48.1186 305.793 48.2857 305.437 48.3461C305.101 48.4213 304.774 48.3851 304.456 48.2374C304.134 48.0719 303.927 47.768 303.834 47.3255C303.587 46.1942 303.27 44.3233 302.883 41.7128L302.588 39.9755L301.041 43.0147C299.415 46.0764 298.366 48.1056 297.894 49.1022C297.731 49.4414 297.478 49.6768 297.133 49.8085C296.789 49.9401 296.447 49.9247 296.108 49.7623ZM320.023 45.4065C317.795 43.621 315.886 41.9283 314.295 40.3283L312.449 43.0608L312.431 43.1188C312.641 43.9264 312.871 44.7398 313.12 45.5592C313.263 45.9747 313.242 46.3358 313.056 46.6423C312.867 46.931 312.597 47.1234 312.246 47.2194C311.917 47.3303 311.587 47.3312 311.257 47.2222C310.942 47.0923 310.711 46.8107 310.564 46.3773C310.252 45.4036 309.973 44.4061 309.727 43.3847C309.474 42.3277 309.3 41.5141 309.203 40.9439C309.077 40.3055 308.95 39.6121 308.823 38.8637C308.693 38.0975 308.566 37.3492 308.442 36.6186C308.333 35.8672 308.229 35.1975 308.129 34.6095C308.054 34.1641 308.132 33.8118 308.363 33.5527C308.591 33.2757 308.883 33.1071 309.239 33.0467C309.596 32.9863 309.927 33.0492 310.234 33.2356C310.537 33.4041 310.727 33.7111 310.802 34.1565C310.896 34.7089 311.05 35.6176 311.264 36.8827C311.464 38.1687 311.606 39.0611 311.691 39.56C314.763 35.5198 316.531 33.1856 316.992 32.5574C317.241 32.1853 317.538 31.9884 317.882 31.9667C318.245 31.9419 318.572 32.0331 318.863 32.2403C319.155 32.4475 319.349 32.7262 319.445 33.0766C319.538 33.4091 319.45 33.754 319.181 34.1112C318.473 35.1293 317.421 36.49 316.023 38.1933C317.578 39.7993 319.471 41.504 321.701 43.3073C322.059 43.5766 322.239 43.8851 322.243 44.2328C322.247 44.5804 322.137 44.9015 321.912 45.1963C321.684 45.4732 321.393 45.6508 321.04 45.729C320.704 45.8042 320.365 45.6967 320.023 45.4065ZM325.237 44.8252C324.701 44.586 324.439 44.1722 324.449 43.5839C324.425 43.5513 324.41 43.5172 324.404 43.4815C324.254 42.9204 324.104 42.3043 323.954 41.6333C323.818 40.9414 323.69 40.294 323.569 39.6912C323.464 39.0676 323.39 38.5761 323.347 38.2167C323.311 38.0029 323.264 37.6717 323.206 37.2233C323.166 36.7718 323.11 36.2772 323.037 35.7397C322.979 35.1813 322.915 34.6422 322.845 34.1224C322.773 33.5849 322.715 33.1364 322.672 32.777C322.645 32.3968 322.623 32.1621 322.608 32.073C322.559 31.678 322.651 31.3509 322.882 31.0918C323.128 30.8119 323.429 30.6417 323.785 30.5813C324.141 30.5209 324.477 30.6106 324.793 30.8504C324.942 30.9718 325.084 31.3235 325.219 31.9054C325.352 32.4696 325.475 33.1451 325.59 33.9322C325.723 34.7162 325.831 35.5136 325.913 36.3245C326.01 37.1145 326.093 37.8155 326.16 38.4274C326.224 39.0214 326.269 39.3986 326.296 39.559L327.782 36.8051C329.085 34.3296 330.023 32.1269 330.594 30.1971C330.762 29.7837 331.064 29.5125 331.501 29.3835C331.634 29.3059 331.78 29.2446 331.937 29.1996C332.308 29.1184 332.648 29.1798 332.958 29.384C333.282 29.5673 333.485 29.8445 333.566 30.2157C333.934 31.9498 334.308 33.9944 334.688 36.3494C335.064 38.8887 335.373 40.715 335.617 41.8285C335.71 42.2709 335.643 42.6306 335.415 42.9076C335.205 43.1815 334.922 43.3487 334.565 43.4091C334.23 43.4843 333.903 43.448 333.584 43.3003C333.263 43.1348 333.056 42.8309 332.962 42.3884C332.716 41.2571 332.399 39.3862 332.011 36.7757L331.717 35.0384L330.17 38.0776C328.544 41.1393 327.495 43.1685 327.022 44.1651C326.86 44.5043 326.606 44.7397 326.262 44.8714C325.918 45.003 325.576 44.9876 325.237 44.8252Z" fill="black"/>
<rect y="102.564" width="255.905" height="58.3085" rx="29.1543" transform="rotate(-3.05716 0 102.564)" fill="url(#paint0_linear_225_34)"/>
<path d="M102.052 135.02C101.546 135.047 101.164 134.841 100.906 134.403C99.6273 134.525 98.222 134.646 96.69 134.764C95.177 134.899 93.6269 135.018 92.0397 135.121C90.4526 135.223 88.8906 135.289 87.3537 135.317C85.8349 135.343 84.4215 135.31 83.1135 135.217C82.7686 135.199 82.4807 135.061 82.2497 134.802C82.0187 134.543 81.9216 134.249 81.9584 133.922C81.962 133.65 82.0577 133.41 82.2456 133.2C82.2244 132.803 82.1985 131.809 82.1678 130.218C82.1381 128.645 82.1068 127.552 82.0741 126.939C82.0413 126.325 81.9788 125.324 81.8865 123.935C81.7943 122.547 81.6689 121.386 81.5105 120.453C81.3702 119.52 81.1762 118.598 80.9285 117.688C80.8171 117.296 80.8539 116.968 81.0389 116.705C81.2419 116.441 81.4954 116.273 81.7993 116.203C82.1203 116.113 82.429 116.133 82.7255 116.262C83.0219 116.391 83.2264 116.661 83.3388 117.071C83.5446 117.874 83.7262 118.733 83.8836 119.648C83.9895 120.276 84.0736 120.832 84.1357 121.318C84.2158 121.802 84.2804 122.332 84.3293 122.909C84.3781 123.485 84.4252 124.198 84.4705 125.046C84.5399 126.345 84.5881 127.248 84.6151 127.753C84.6404 128.566 84.6516 129.452 84.6485 130.412C84.6625 131.352 84.6874 132.156 84.7231 132.824C86.7729 132.913 89.0658 132.809 91.6017 132.511C91.5873 132.24 91.5756 131.852 91.5666 131.345C91.5567 130.821 91.5359 130.261 91.5041 129.665C91.4713 129.052 91.44 128.465 91.4101 127.906C91.3973 127.327 91.3813 126.858 91.362 126.497C91.3054 125.776 91.2319 124.739 91.1416 123.387C91.0522 122.052 90.9364 120.9 90.7941 119.93C90.6689 118.942 90.5091 117.982 90.3146 117.051C90.2212 116.658 90.2765 116.338 90.4805 116.092C90.6836 115.828 90.9466 115.669 91.2695 115.616C91.5914 115.544 91.8921 115.582 92.1715 115.73C92.4508 115.878 92.6372 116.149 92.7306 116.542C92.928 117.527 93.0993 118.531 93.2445 119.555C93.3887 120.561 93.5164 121.767 93.6277 123.172C93.7209 124.579 93.7863 125.634 93.8239 126.338C93.8769 127.331 93.9248 128.396 93.9674 129.534C94.0091 130.654 94.0512 131.611 94.0936 132.405C95.3559 132.319 97.5552 132.157 100.691 131.917C100.674 131.248 100.671 130.18 100.683 128.714C100.677 127.248 100.67 126.099 100.662 125.267C100.562 121.363 100.238 118.521 99.6909 116.74C99.5624 116.367 99.5906 116.049 99.7756 115.786C99.9597 115.505 100.203 115.311 100.505 115.204C100.825 115.096 101.133 115.107 101.429 115.236C101.725 115.347 101.929 115.607 102.041 116.018C102.673 118.011 103.035 121.077 103.13 125.217C103.156 126.048 103.166 127.242 103.158 128.799C103.152 130.374 103.16 131.54 103.182 132.299C103.337 132.49 103.422 132.712 103.435 132.965C103.45 133.253 103.383 133.51 103.232 133.736C103.232 134.079 103.121 134.375 102.899 134.622C102.677 134.869 102.395 135.002 102.052 135.02ZM110.269 134.473C109.914 134.6 109.569 134.574 109.233 134.392C108.899 134.229 108.677 133.97 108.567 133.613C108.502 133.418 108.447 133.231 108.401 133.052C108.361 132.964 108.329 132.875 108.306 132.786C108.031 131.715 107.81 130.613 107.641 129.482C107.471 128.333 107.316 126.957 107.176 125.354C107.036 123.75 106.932 122.652 106.864 122.058C106.804 121.953 106.753 121.838 106.71 121.714C106.642 121.464 106.647 121.21 106.724 120.953C106.743 120.644 106.855 120.367 107.059 120.12C107.281 119.873 107.554 119.723 107.877 119.67C108.183 119.635 108.466 119.683 108.726 119.814C110.157 119.503 111.478 119.332 112.689 119.304C113.863 119.259 114.856 119.369 115.666 119.634C116.881 120.021 117.66 120.713 118.003 121.708C118.46 123.149 118.299 124.37 117.52 125.371C117.402 125.54 117.266 125.702 117.111 125.855C117.223 125.903 117.326 125.97 117.421 126.055C118.189 126.539 118.719 127.144 119.011 127.871C119.302 128.579 119.341 129.31 119.128 130.063C118.964 130.724 118.634 131.329 118.139 131.881C117.661 132.413 117.086 132.833 116.415 133.14C115.248 133.655 113.443 133.914 111 133.918C110.815 134.199 110.572 134.384 110.269 134.473ZM110.718 131.191C111.516 131.221 112.339 131.204 113.186 131.141C114.05 131.058 114.756 130.894 115.304 130.648C115.975 130.34 116.378 129.921 116.513 129.389C116.618 128.985 116.436 128.623 115.966 128.305C115.348 127.903 114.408 127.764 113.148 127.885C112.41 127.961 111.442 128.148 110.246 128.447C110.373 129.472 110.53 130.387 110.718 131.191ZM109.927 125.532C111.653 125.314 113.003 125.006 113.977 124.61C114.669 124.338 115.132 124.042 115.369 123.722C115.556 123.494 115.594 123.203 115.485 122.847C115.414 122.543 115.204 122.328 114.853 122.202C114.338 122.048 113.638 121.986 112.753 122.015C111.831 122.046 110.789 122.174 109.624 122.4C109.703 123.192 109.804 124.236 109.927 125.532ZM122.649 133.241C122.144 132.943 121.93 132.502 122.008 131.918C121.988 131.883 121.977 131.848 121.975 131.812C121.89 131.237 121.811 130.608 121.738 129.924C121.683 129.221 121.63 128.563 121.579 127.951C121.545 127.319 121.528 126.822 121.526 126.46C121.515 126.244 121.506 125.909 121.5 125.457C121.512 125.004 121.512 124.506 121.502 123.964C121.508 123.403 121.506 122.86 121.496 122.336C121.485 121.793 121.479 121.341 121.478 120.979C121.494 120.598 121.499 120.363 121.494 120.272C121.491 119.874 121.619 119.56 121.878 119.329C122.155 119.079 122.473 118.944 122.834 118.925C123.195 118.906 123.519 119.033 123.805 119.308C123.939 119.445 124.04 119.811 124.108 120.404C124.175 120.98 124.22 121.665 124.245 122.46C124.287 123.254 124.303 124.059 124.292 124.874C124.298 125.67 124.3 126.376 124.297 126.991C124.292 127.589 124.294 127.968 124.303 128.131L126.093 125.565C127.671 123.255 128.854 121.173 129.642 119.322C129.856 118.93 130.188 118.695 130.636 118.617C130.778 118.555 130.929 118.511 131.09 118.484C131.468 118.446 131.8 118.546 132.084 118.784C132.385 119.003 132.555 119.302 132.593 119.68C132.76 121.444 132.898 123.518 133.007 125.901C133.09 128.467 133.188 130.317 133.303 131.451C133.345 131.901 133.237 132.251 132.979 132.5C132.739 132.748 132.439 132.882 132.078 132.901C131.736 132.937 131.415 132.864 131.116 132.681C130.815 132.48 130.644 132.154 130.602 131.704C130.486 130.552 130.385 128.657 130.298 126.019L130.204 124.259L128.32 127.102C126.355 129.958 125.081 131.854 124.498 132.79C124.297 133.108 124.019 133.313 123.662 133.405C123.305 133.496 122.967 133.442 122.649 133.241ZM148.56 135.197L148.389 132.002L147.712 132.039C146.811 132.105 145.522 132.192 143.844 132.3C143.465 132.32 142.987 132.345 142.409 132.376C141.851 132.424 141.292 132.463 140.733 132.493C140.173 132.523 139.686 132.558 139.272 132.598C138.876 132.637 138.633 132.659 138.543 132.664C138.533 132.827 138.559 133.469 138.618 134.587C138.642 135.039 138.525 135.38 138.266 135.611C138.008 135.86 137.698 135.994 137.337 136.013C136.976 136.033 136.654 135.932 136.371 135.712C136.089 135.51 135.935 135.183 135.911 134.732C135.852 133.613 135.822 132.547 135.822 131.533C135.826 131.262 135.902 131.004 136.052 130.761C136.282 130.314 136.658 130.068 137.18 130.022C138.843 126.259 139.587 122.727 139.41 119.424C139.39 119.045 139.499 118.723 139.739 118.457C139.995 118.171 140.312 118.019 140.691 117.998C140.818 117.992 140.945 118.003 141.073 118.032L141.1 118.031C141.334 118 142.469 117.913 144.507 117.768C145.408 117.701 146.084 117.656 146.536 117.632L147.591 117.576C147.645 117.573 147.7 117.579 147.755 117.594C147.81 117.609 147.874 117.624 147.948 117.638C148.205 117.715 148.421 117.857 148.595 118.065C148.73 118.221 148.83 118.405 148.896 118.619C148.9 118.691 148.913 118.772 148.936 118.861C148.961 118.987 148.978 119.139 148.988 119.32L149.05 120.484C149.068 121.171 149.096 122.373 149.134 124.09C149.189 127.164 149.227 128.89 149.247 129.269L149.329 129.265C149.402 129.279 149.465 129.285 149.52 129.282C149.683 129.291 149.848 129.327 150.014 129.391C150.348 129.536 150.596 129.785 150.76 130.138C150.82 130.244 150.863 130.368 150.888 130.512C150.933 130.672 150.971 130.878 151.003 131.13C151.059 131.507 151.104 132.011 151.138 132.643L151.267 135.052C151.291 135.503 151.173 135.844 150.914 136.075C150.656 136.325 150.346 136.459 149.985 136.478C149.624 136.497 149.302 136.397 149.019 136.177C148.737 135.975 148.584 135.648 148.56 135.197ZM140.21 129.833C141.67 129.719 142.824 129.639 143.673 129.594C144.808 129.515 145.764 129.455 146.54 129.414C146.513 128.89 146.473 127.128 146.421 124.126C146.385 122.445 146.358 121.261 146.34 120.574L146.328 120.358C145.859 120.383 145.318 120.421 144.706 120.472C143.66 120.546 142.804 120.609 142.137 120.663C142.096 123.633 141.454 126.69 140.21 129.833ZM163.373 130.768C161.365 128.74 159.662 126.84 158.264 125.068L156.117 127.572L156.093 127.628C156.21 128.454 156.345 129.288 156.498 130.131C156.594 130.56 156.531 130.916 156.311 131.199C156.09 131.464 155.8 131.625 155.441 131.68C155.101 131.753 154.773 131.716 154.458 131.57C154.159 131.405 153.962 131.099 153.866 130.651C153.667 129.648 153.504 128.625 153.376 127.583C153.246 126.504 153.166 125.675 153.135 125.098C153.082 124.449 153.035 123.746 152.995 122.988C152.953 122.212 152.913 121.454 152.873 120.714C152.851 119.955 152.824 119.278 152.792 118.682C152.768 118.231 152.886 117.89 153.145 117.659C153.403 117.41 153.712 117.276 154.073 117.257C154.434 117.237 154.756 117.338 155.04 117.558C155.322 117.76 155.475 118.087 155.499 118.538C155.529 119.097 155.578 120.018 155.647 121.299C155.698 122.599 155.737 123.502 155.764 124.007C159.279 120.345 161.301 118.228 161.832 117.657C162.121 117.315 162.438 117.154 162.783 117.171C163.146 117.188 163.46 117.316 163.727 117.555C163.993 117.795 164.153 118.094 164.209 118.453C164.263 118.794 164.136 119.126 163.828 119.45C163.009 120.381 161.808 121.612 160.224 123.145C161.586 124.918 163.272 126.828 165.281 128.874C165.605 129.183 165.75 129.51 165.714 129.856C165.678 130.201 165.531 130.508 165.274 130.775C165.016 131.024 164.707 131.167 164.347 131.204C164.005 131.241 163.681 131.095 163.373 130.768ZM171.505 130.714C170.283 130.544 169.264 130.109 168.449 129.411C167.632 128.694 167.016 127.831 166.6 126.822C166.202 125.812 166.01 124.754 166.024 123.649C166.023 122.618 166.186 121.614 166.514 120.637C166.825 119.679 167.349 118.81 168.085 118.028C168.84 117.246 169.736 116.755 170.775 116.555C170.936 116.51 171.115 116.482 171.314 116.472C171.611 116.275 171.933 116.194 172.278 116.23L172.442 116.248C172.605 116.24 172.859 116.253 173.205 116.289C173.567 116.306 173.869 116.362 174.109 116.458C175.197 116.834 176.11 117.491 176.848 118.429C177.568 119.368 178.065 120.382 178.341 121.471C178.616 122.561 178.71 123.651 178.624 124.741C178.451 126.596 177.798 128.088 176.664 129.216C175.323 130.537 173.603 131.036 171.505 130.714ZM171.904 128.032C173.127 128.22 174.082 127.97 174.769 127.282C175.422 126.631 175.807 125.706 175.924 124.505C175.989 123.687 175.92 122.904 175.717 122.154C175.514 121.405 175.208 120.761 174.799 120.222C174.389 119.664 173.907 119.274 173.352 119.05C173.091 119.245 172.806 119.333 172.497 119.313C172.461 119.315 172.179 119.276 171.649 119.195C171.486 119.186 171.368 119.183 171.296 119.187C170.58 119.334 169.973 119.828 169.475 120.669C168.976 121.492 168.73 122.482 168.738 123.64C168.728 124.817 169.007 125.807 169.575 126.609C170.125 127.412 170.901 127.886 171.904 128.032Z" fill="white"/>
<rect x="46.6529" y="156.145" width="255.905" height="58.3085" rx="29.1543" transform="rotate(10.7436 46.6529 156.145)" fill="url(#paint1_linear_225_34)"/>
<path d="M60.9724 196.894C60.6561 196.815 60.4028 196.648 60.2124 196.391C59.9807 196.255 59.7963 196.063 59.6591 195.817C59.5398 195.573 59.4965 195.317 59.5292 195.047C59.7437 193.432 59.997 191.806 60.2892 190.169C60.5039 188.941 60.7392 187.652 60.9953 186.303C61.2724 184.939 61.5378 183.637 61.7914 182.398C62.0484 181.14 62.2627 180.059 62.4346 179.153C62.4952 178.834 62.6451 178.577 62.8842 178.383C63.1444 178.175 63.4322 178.064 63.7475 178.05L63.8008 178.061C67.8602 177.801 70.9459 178.552 73.0581 180.314C74.1984 181.284 74.8505 182.355 75.0145 183.527C75.1709 184.642 74.88 185.69 74.1418 186.672C73.6308 187.33 72.9629 187.893 72.1381 188.362C72.8098 188.894 73.3018 189.548 73.6143 190.325C73.9268 191.102 74.0589 191.908 74.0104 192.745C74.0548 193.287 73.9592 193.839 73.7237 194.402C73.506 194.967 73.1763 195.493 72.7345 195.98C72.3104 196.47 71.8111 196.872 71.2365 197.186C70.7041 197.471 70.1124 197.681 69.4616 197.815C68.8107 197.949 68.2161 198.029 67.6776 198.055C67.1602 198.068 66.5253 198.021 65.7728 197.915C65.1624 197.836 64.6635 197.75 64.2763 197.658C63.8857 197.584 63.5339 197.499 63.221 197.403C62.9048 197.325 62.5708 197.243 62.2191 197.158C61.8851 197.076 61.4695 196.988 60.9724 196.894ZM62.7993 194.536C63.7513 194.754 64.6252 194.947 65.4208 195.116C66.2342 195.289 67.0484 195.361 67.8633 195.332C68.6605 195.299 69.3658 195.12 69.9794 194.795C70.3884 194.578 70.7043 194.27 70.9272 193.871C71.1535 193.454 71.2749 193.008 71.2915 192.533C71.3292 192.043 71.2486 191.596 71.0496 191.19C70.854 190.767 70.5372 190.449 70.0991 190.237C69.5291 189.945 68.9795 189.74 68.4502 189.621C67.9175 189.52 66.9071 189.319 65.419 189.018C64.4137 188.791 63.8134 188.658 63.6181 188.621C63.5293 188.604 63.4422 188.579 63.3568 188.544C62.9491 190.693 62.6141 192.652 62.3516 194.424C62.4547 194.462 62.604 194.499 62.7993 194.536ZM63.852 185.934C64.2206 185.93 64.6873 185.991 65.2521 186.117C65.8169 186.242 66.3817 186.368 66.9465 186.494C67.5291 186.623 68.0152 186.678 68.405 186.66C69.1066 186.646 69.7908 186.481 70.4576 186.166C71.1244 185.852 71.6293 185.469 71.9722 185.019C72.2627 184.651 72.3884 184.279 72.3493 183.904C72.2737 183.43 71.9179 182.93 71.2818 182.405C69.9055 181.224 67.7768 180.664 64.8958 180.724L63.852 185.934ZM76.1637 199.831C75.7216 199.931 75.3665 199.864 75.0983 199.629C74.8268 199.412 74.6504 199.13 74.569 198.784C74.5053 198.44 74.5482 198.117 74.6976 197.815C74.8682 197.498 75.1745 197.289 75.6165 197.189C75.7509 197.159 75.9031 197.133 76.073 197.11C76.0907 197.113 76.1368 197.113 76.2112 197.109C76.3067 197.09 76.3739 197.075 76.4128 197.064L76.6144 197.02C76.9212 196.857 77.2396 196.439 77.5696 195.766C77.9175 195.096 78.2347 194.2 78.5213 193.077C78.808 191.954 79.1423 190.095 79.5242 187.5C79.5444 187.394 79.5752 187.28 79.6166 187.159C79.695 186.843 79.8715 186.591 80.1461 186.404C80.4207 186.217 80.7301 186.138 81.0742 186.167C82.3905 186.306 84.8775 186.723 88.5352 187.417C88.6595 187.44 88.7804 187.482 88.8979 187.541C89.2674 187.629 89.5512 187.83 89.7493 188.144C89.9473 188.457 90.0021 188.799 89.9136 189.168C89.7947 189.698 89.5928 190.423 89.3077 191.343C89.0049 192.261 88.8075 192.913 88.7156 193.301C88.354 194.722 87.8548 197.11 87.218 200.466C87.1338 200.91 86.9366 201.222 86.6265 201.403C86.3197 201.565 85.9888 201.613 85.6337 201.545C85.2786 201.478 84.9881 201.312 84.7622 201.049C84.5396 200.767 84.4705 200.405 84.5547 199.961C85.2015 196.552 85.7108 194.11 86.0826 192.635C86.2023 192.198 86.4098 191.493 86.705 190.519L86.9112 189.868C84.7307 189.436 83.1099 189.156 82.0488 189.028C81.7627 190.924 81.4557 192.493 81.1277 193.737C80.8074 195.037 80.437 196.117 80.0166 196.975C79.4223 198.169 78.725 198.984 77.9248 199.42C77.6002 199.58 77.2203 199.691 76.785 199.756C76.7672 199.753 76.6362 199.765 76.3919 199.792C76.2964 199.81 76.2203 199.824 76.1637 199.831ZM95.4595 203.327C94.5482 203.283 93.7195 202.997 92.9735 202.469C92.2486 201.927 91.6685 201.154 91.2333 200.152C90.8886 199.351 90.7186 198.647 90.7233 198.041C90.7313 197.417 90.8356 196.674 91.0362 195.81C91.4475 194.03 92.1739 192.577 93.2154 191.45C94.2781 190.309 95.5208 189.625 96.9434 189.398C98.3517 189.151 99.7417 189.387 101.113 190.107C102.467 190.824 103.627 191.936 104.592 193.443C104.804 193.778 104.866 194.13 104.777 194.499C104.689 194.869 104.486 195.162 104.169 195.377C104 195.492 103.803 195.565 103.576 195.596C103.564 195.759 103.535 195.956 103.492 196.187C103.465 196.329 103.439 196.462 103.416 196.586C103.371 196.725 103.347 196.803 103.344 196.821L103.298 197.061C103.265 197.33 103.235 197.637 103.206 197.981C103.157 198.34 103.126 198.601 103.113 198.764C103.073 198.977 103.05 199.239 103.046 199.551C103.046 199.846 103.051 200.058 103.063 200.189C103.122 200.752 103.549 201.606 104.343 202.75C104.581 203.145 104.64 203.514 104.519 203.859C104.416 204.208 104.208 204.481 103.895 204.679C103.599 204.88 103.272 204.956 102.913 204.907C102.569 204.878 102.257 204.681 101.977 204.315C101.106 202.991 100.578 201.897 100.392 201.034C100.294 201.163 100.191 201.272 100.082 201.362C99.4463 201.995 98.7264 202.494 97.9218 202.856C97.1172 203.218 96.2965 203.375 95.4595 203.327ZM95.6021 200.539C96.4568 200.591 97.2931 200.207 98.1108 199.388C98.9319 198.55 99.6801 197.322 100.355 195.702L100.375 195.596C100.389 195.525 100.416 195.429 100.458 195.308C100.481 195.183 100.505 195.059 100.528 194.935C100.61 194.601 100.695 194.35 100.782 194.183C100.868 194.015 100.989 193.863 101.144 193.727C101.168 193.695 101.191 193.672 101.212 193.657C100.009 192.436 98.7337 191.936 97.3854 192.159C96.6069 192.287 95.8827 192.711 95.2128 193.43C94.5463 194.131 94.0618 195.133 93.7592 196.437C93.6572 196.878 93.5881 197.242 93.552 197.529C93.5192 197.799 93.5181 198.047 93.5487 198.274C93.5971 198.504 93.6936 198.77 93.8384 199.074C94.2305 200.013 94.8184 200.501 95.6021 200.539ZM111.638 206.452C110.38 206.195 109.351 205.705 108.55 204.983C107.749 204.261 107.188 203.391 106.866 202.373C106.33 200.542 106.548 198.616 107.521 196.593C107.969 195.684 108.537 194.872 109.225 194.157C109.93 193.444 110.717 192.932 111.586 192.618C112.525 192.226 113.513 192.156 114.551 192.408C115.606 192.664 116.593 193.228 117.513 194.101C117.742 194.347 117.938 194.578 118.099 194.792C118.279 195.01 118.428 195.241 118.547 195.484C118.595 195.622 118.66 195.809 118.744 196.046C118.832 196.265 118.912 196.473 118.984 196.671C119.075 196.872 119.124 197.001 119.132 197.057C119.253 197.485 119.203 197.844 118.983 198.133C118.78 198.426 118.504 198.621 118.154 198.721C117.825 198.805 117.499 198.78 117.175 198.645C116.854 198.492 116.634 198.202 116.512 197.775C116.457 197.58 116.399 197.403 116.337 197.245C116.257 197.082 116.207 196.962 116.185 196.885C116.123 196.726 116.049 196.583 115.962 196.456C115.894 196.333 115.772 196.199 115.597 196.056C114.588 195.073 113.569 194.77 112.541 195.145C111.489 195.552 110.633 196.429 109.973 197.775C109.303 199.175 109.134 200.449 109.468 201.598C109.82 202.75 110.729 203.483 112.196 203.798C112.726 203.917 113.169 203.909 113.525 203.775C113.896 203.661 114.445 203.388 115.171 202.956C115.519 202.672 115.87 202.564 116.225 202.631C116.581 202.699 116.869 202.873 117.092 203.155C117.314 203.436 117.429 203.752 117.436 204.103C117.443 204.454 117.273 204.771 116.925 205.054C116.277 205.465 115.679 205.802 115.132 206.066C114.589 206.313 114.043 206.476 113.494 206.556C112.946 206.635 112.327 206.601 111.638 206.452ZM120.287 206.851C120.414 205.698 120.543 204.628 120.675 203.641C120.817 202.601 120.959 201.709 121.101 200.963C121.194 200.374 121.306 199.733 121.438 199.04C121.569 198.348 121.69 197.662 121.8 196.984C121.928 196.31 122.032 195.713 122.112 195.195C122.193 194.769 122.389 194.466 122.699 194.285C123.009 194.105 123.341 194.048 123.697 194.116C124.055 194.165 124.347 194.322 124.573 194.586C124.799 194.849 124.87 195.203 124.786 195.647L124.035 199.892C125.842 200.161 127.838 200.503 130.022 200.917C130.192 199.92 130.395 198.56 130.63 196.839C130.696 196.391 130.876 196.076 131.168 195.892C131.478 195.712 131.804 195.645 132.144 195.691C132.503 195.741 132.804 195.899 133.048 196.166C133.295 196.415 133.387 196.755 133.324 197.184C132.841 200.698 132.197 204.577 131.392 208.82C131.307 209.264 131.11 209.576 130.8 209.756C130.493 209.919 130.162 209.967 129.807 209.899C129.452 209.832 129.162 209.666 128.936 209.403C128.713 209.121 128.644 208.759 128.728 208.315C129.062 206.557 129.351 204.984 129.596 203.596C127.377 203.175 125.372 202.831 123.583 202.565C123.329 204.099 123.135 205.607 123.001 207.09C122.955 207.523 122.785 207.84 122.489 208.042C122.211 208.246 121.89 208.342 121.524 208.328C121.162 208.296 120.849 208.153 120.584 207.901C120.337 207.652 120.238 207.302 120.287 206.851ZM139.363 211.657C138.452 211.613 137.623 211.327 136.877 210.799C136.152 210.257 135.572 209.485 135.137 208.482C134.792 207.681 134.622 206.977 134.627 206.371C134.635 205.747 134.739 205.004 134.94 204.14C135.351 202.361 136.077 200.907 137.119 199.781C138.182 198.639 139.424 197.955 140.847 197.729C142.255 197.481 143.645 197.717 145.017 198.437C146.371 199.154 147.53 200.266 148.495 201.774C148.707 202.108 148.769 202.46 148.681 202.83C148.592 203.199 148.39 203.492 148.073 203.708C147.904 203.823 147.706 203.896 147.48 203.926C147.467 204.089 147.439 204.286 147.395 204.517C147.368 204.659 147.343 204.792 147.319 204.917C147.275 205.055 147.251 205.134 147.247 205.151L147.202 205.391C147.169 205.661 147.138 205.968 147.11 206.312C147.06 206.67 147.029 206.931 147.016 207.094C146.976 207.307 146.954 207.57 146.95 207.882C146.949 208.176 146.955 208.389 146.967 208.52C147.025 209.083 147.452 209.936 148.247 211.08C148.485 211.475 148.543 211.845 148.423 212.19C148.32 212.538 148.111 212.811 147.798 213.009C147.502 213.211 147.175 213.287 146.817 213.237C146.473 213.208 146.16 213.011 145.88 212.645C145.01 211.321 144.481 210.228 144.295 209.365C144.198 209.493 144.094 209.602 143.985 209.692C143.35 210.326 142.63 210.824 141.825 211.186C141.021 211.549 140.2 211.706 139.363 211.657ZM139.506 208.87C140.36 208.922 141.197 208.538 142.014 207.718C142.835 206.88 143.584 205.652 144.259 204.032L144.279 203.926C144.292 203.855 144.32 203.759 144.361 203.638C144.385 203.514 144.408 203.389 144.432 203.265C144.514 202.931 144.598 202.68 144.685 202.513C144.772 202.346 144.893 202.194 145.047 202.057C145.072 202.025 145.095 202.002 145.116 201.988C143.913 200.766 142.637 200.267 141.289 200.489C140.51 200.617 139.786 201.041 139.116 201.76C138.45 202.461 137.965 203.464 137.663 204.768C137.561 205.208 137.492 205.572 137.455 205.86C137.423 206.129 137.422 206.377 137.452 206.604C137.501 206.834 137.597 207.1 137.742 207.404C138.134 208.343 138.722 208.831 139.506 208.87ZM165.019 216.387C164.669 216.486 164.327 216.449 163.992 216.275C163.678 216.087 163.464 215.807 163.351 215.436C162.943 213.997 162.411 211.662 161.756 208.428C161.665 208.908 161.479 209.838 161.198 211.22C160.914 212.619 160.705 213.674 160.57 214.384C160.486 214.828 160.289 215.14 159.979 215.32C159.672 215.483 159.341 215.531 158.986 215.463C158.631 215.396 158.34 215.23 158.114 214.967C157.892 214.685 157.823 214.323 157.907 213.879C158.045 213.151 158.29 211.956 158.642 210.293C158.974 208.646 159.243 207.225 159.451 206.032C159.677 204.842 159.864 203.664 160.012 202.496C160.065 202.12 160.232 201.821 160.513 201.598C160.816 201.361 161.155 201.269 161.531 201.322L161.584 201.332C161.928 201.269 162.246 201.338 162.538 201.541C162.834 201.726 163.025 201.983 163.109 202.311L164.292 207.42L165.347 211.897L165.687 211.409C168.727 207.608 170.349 205.552 170.555 205.242C170.74 204.946 170.918 204.639 171.088 204.322L171.12 204.3C171.213 204.005 171.395 203.773 171.666 203.604C171.955 203.438 172.261 203.376 172.584 203.419C172.96 203.472 173.258 203.648 173.477 203.948C173.696 204.247 173.779 204.584 173.726 204.961C173.616 205.639 173.479 206.606 173.314 207.862C173.173 208.994 173.045 209.908 172.931 210.604C172.592 212.876 172.212 214.882 171.789 216.623C171.687 217.064 171.474 217.364 171.15 217.523C170.829 217.664 170.494 217.683 170.145 217.581C169.811 217.499 169.533 217.317 169.311 217.036C169.106 216.758 169.054 216.399 169.156 215.958C169.572 214.253 169.936 212.335 170.248 210.205L170.298 209.939L169.657 210.7C169.167 211.251 168.58 212.013 167.899 212.988L166.06 215.702C165.913 215.894 165.73 216.035 165.511 216.122C165.377 216.244 165.213 216.332 165.019 216.387ZM186.401 218.458C185.486 219.112 184.489 219.52 183.41 219.683C182.348 219.85 181.31 219.791 180.297 219.507C179.281 219.24 178.399 218.751 177.651 218.039C176.865 217.338 176.256 216.523 175.825 215.595C175.415 214.653 175.237 213.654 175.29 212.597C175.364 211.526 175.737 210.437 176.406 209.332C177.058 208.223 177.841 207.342 178.757 206.688C179.689 206.037 180.679 205.618 181.727 205.43C182.774 205.242 183.792 205.307 184.78 205.623C185.804 205.946 186.666 206.496 187.365 207.272C188.081 208.052 188.583 208.994 188.871 210.097C189.158 211.2 189.175 212.417 188.923 213.749C188.828 214.246 188.543 214.587 188.066 214.773C187.763 214.917 187.446 214.94 187.115 214.84C184.957 214.192 181.969 213.606 178.15 213.084L178.097 213.074C178.108 213.886 178.321 214.607 178.735 215.237C179.152 215.85 179.697 216.321 180.37 216.651C181.061 216.984 181.796 217.133 182.576 217.097C183.359 217.043 184.112 216.754 184.837 216.229C185.197 215.985 185.541 215.912 185.872 216.012C186.224 216.097 186.5 216.287 186.702 216.583C186.907 216.861 186.993 217.181 186.961 217.543C186.95 217.89 186.764 218.195 186.401 218.458ZM178.9 210.44C181.963 210.874 184.459 211.338 186.389 211.833C186.369 210.873 186.124 210.081 185.653 209.459C185.2 208.839 184.635 208.428 183.956 208.226C183.123 207.958 182.241 208.002 181.309 208.358C180.377 208.715 179.574 209.409 178.9 210.44ZM195.903 221.116C195.819 221.56 195.623 221.863 195.317 222.025C195.01 222.188 194.681 222.227 194.329 222.142C193.974 222.074 193.685 221.9 193.462 221.618C193.24 221.337 193.169 220.983 193.25 220.557C194.214 215.958 194.85 212.611 195.155 210.516C194.871 210.462 194.375 210.359 193.668 210.207C192.944 210.051 192.386 209.936 191.996 209.862C191.552 209.778 191.249 209.582 191.086 209.275C190.923 208.969 190.876 208.638 190.943 208.282C191.028 207.931 191.212 207.644 191.493 207.421C191.774 207.199 192.128 207.128 192.554 207.209C197.26 208.193 200.293 208.787 201.653 208.99C202.1 209.057 202.414 209.245 202.594 209.555C202.778 209.847 202.836 210.171 202.769 210.526C202.722 210.867 202.566 211.159 202.299 211.403C202.049 211.65 201.701 211.74 201.254 211.674C200.217 211.514 199.069 211.314 197.808 211.075C197.496 213.205 196.861 216.552 195.903 221.116ZM205.906 224.283C204.76 223.826 203.875 223.162 203.249 222.289C202.627 221.398 202.235 220.413 202.072 219.334C201.926 218.258 201.992 217.185 202.269 216.115C202.514 215.113 202.912 214.177 203.464 213.307C203.994 212.451 204.71 211.732 205.611 211.148C206.531 210.569 207.519 210.305 208.576 210.359C208.742 210.354 208.923 210.37 209.118 210.407C209.454 210.286 209.785 210.285 210.113 210.402L210.267 210.459C210.427 210.489 210.671 210.563 210.998 210.68C211.346 210.783 211.626 210.91 211.836 211.06C212.803 211.685 213.533 212.541 214.026 213.628C214.501 214.711 214.742 215.815 214.75 216.938C214.757 218.062 214.589 219.143 214.245 220.181C213.635 221.942 212.644 223.235 211.274 224.06C209.656 225.022 207.867 225.097 205.906 224.283ZM206.934 221.774C208.076 222.248 209.063 222.233 209.895 221.729C210.684 221.253 211.279 220.446 211.679 219.308C211.937 218.529 212.057 217.752 212.038 216.976C212.02 216.2 211.877 215.501 211.608 214.88C211.343 214.241 210.968 213.747 210.483 213.397C210.182 213.524 209.885 213.541 209.59 213.448C209.554 213.442 209.289 213.336 208.794 213.132C208.638 213.084 208.524 213.053 208.453 213.04C207.723 213.011 207.016 213.346 206.331 214.044C205.65 214.724 205.175 215.628 204.907 216.754C204.617 217.894 204.652 218.922 205.011 219.836C205.354 220.748 205.995 221.393 206.934 221.774ZM225.651 231.341L226.248 228.198L225.582 228.071C224.691 227.921 223.418 227.698 221.763 227.402C221.39 227.331 220.92 227.242 220.352 227.134C219.798 227.048 219.246 226.952 218.695 226.848C218.145 226.743 217.664 226.661 217.252 226.601C216.858 226.545 216.617 226.508 216.528 226.492C216.48 226.648 216.351 227.277 216.142 228.377C216.058 228.821 215.863 229.125 215.556 229.287C215.246 229.467 214.913 229.524 214.558 229.456C214.203 229.389 213.914 229.215 213.692 228.933C213.466 228.67 213.395 228.316 213.479 227.872C213.688 226.771 213.913 225.729 214.155 224.745C214.224 224.482 214.36 224.25 214.563 224.049C214.893 223.67 215.316 223.521 215.835 223.601C218.347 220.343 219.912 217.09 220.529 213.841C220.599 213.468 220.783 213.181 221.078 212.979C221.395 212.764 221.74 212.691 222.113 212.762C222.237 212.785 222.358 212.827 222.476 212.886L222.502 212.891C222.736 212.917 223.86 213.103 225.873 213.448C226.764 213.598 227.432 213.716 227.876 213.8L228.915 213.997C228.968 214.007 229.019 214.026 229.069 214.054C229.119 214.082 229.178 214.112 229.246 214.143C229.477 214.279 229.653 214.468 229.772 214.712C229.866 214.895 229.92 215.098 229.932 215.322C229.919 215.393 229.913 215.474 229.914 215.566C229.908 215.694 229.888 215.847 229.854 216.024L229.637 217.169C229.491 217.841 229.232 219.015 228.858 220.691C228.179 223.69 227.804 225.375 227.733 225.748L227.813 225.763C227.881 225.794 227.941 225.815 227.995 225.825C228.151 225.873 228.302 225.948 228.449 226.049C228.738 226.27 228.92 226.571 228.995 226.953C229.028 227.07 229.04 227.201 229.031 227.346C229.036 227.513 229.024 227.722 228.994 227.974C228.959 228.354 228.882 228.854 228.764 229.476L228.315 231.846C228.23 232.29 228.035 232.593 227.728 232.756C227.418 232.936 227.085 232.992 226.73 232.925C226.375 232.858 226.086 232.683 225.864 232.402C225.638 232.138 225.567 231.784 225.651 231.341ZM218.823 224.14C220.268 224.378 221.407 224.575 222.242 224.734C223.364 224.928 224.307 225.098 225.07 225.243C225.168 224.728 225.549 223.007 226.215 220.08C226.582 218.438 226.838 217.282 226.984 216.611L227.024 216.398C226.563 216.31 226.028 216.218 225.421 216.121C224.388 215.944 223.541 215.801 222.881 215.694C222.133 218.569 220.78 221.384 218.823 224.14ZM232.01 229.153C231.591 228.743 231.489 228.263 231.703 227.715C231.692 227.676 231.69 227.639 231.697 227.604C231.751 227.025 231.825 226.396 231.917 225.714C232.031 225.018 232.136 224.367 232.233 223.76C232.351 223.138 232.452 222.652 232.537 222.3C232.578 222.087 232.649 221.76 232.751 221.32C232.871 220.883 232.99 220.399 233.109 219.87C233.249 219.326 233.377 218.799 233.492 218.287C233.611 217.758 233.713 217.317 233.798 216.966C233.904 216.599 233.966 216.372 233.983 216.283C234.074 215.896 234.274 215.621 234.581 215.459C234.908 215.282 235.25 215.227 235.605 215.294C235.96 215.362 236.244 215.563 236.456 215.897C236.554 216.063 236.565 216.442 236.489 217.035C236.417 217.61 236.297 218.286 236.131 219.064C235.983 219.845 235.807 220.63 235.602 221.419C235.418 222.194 235.251 222.879 235.101 223.476C234.954 224.055 234.866 224.425 234.836 224.585L237.186 222.52C239.27 220.653 240.915 218.914 242.122 217.303C242.423 216.974 242.801 216.825 243.255 216.856C243.407 216.83 243.565 216.823 243.728 216.836C244.104 216.889 244.402 217.065 244.621 217.364C244.862 217.648 244.955 217.979 244.902 218.355C244.643 220.109 244.282 222.156 243.82 224.496C243.288 227.007 242.943 228.827 242.784 229.956C242.717 230.403 242.529 230.717 242.219 230.897C241.927 231.081 241.603 231.139 241.248 231.072C240.907 231.025 240.613 230.878 240.366 230.628C240.123 230.361 240.034 230.004 240.1 229.557C240.263 228.411 240.616 226.546 241.162 223.964L241.49 222.233L238.982 224.544C236.393 226.848 234.703 228.386 233.913 229.156C233.643 229.417 233.323 229.55 232.955 229.553C232.586 229.557 232.271 229.423 232.01 229.153ZM255.945 233.391C254.478 230.942 253.278 228.691 252.343 226.637L249.661 228.557L249.624 228.605C249.54 229.435 249.472 230.278 249.421 231.132C249.411 231.572 249.265 231.903 248.984 232.125C248.706 232.33 248.386 232.417 248.024 232.385C247.677 232.374 247.367 232.26 247.096 232.043C246.845 231.812 246.727 231.467 246.74 231.01C246.786 229.989 246.872 228.956 246.996 227.913C247.127 226.834 247.247 226.011 247.355 225.443C247.458 224.8 247.581 224.106 247.722 223.36C247.867 222.597 248.009 221.851 248.147 221.123C248.306 220.381 248.441 219.716 248.552 219.13C248.637 218.687 248.832 218.383 249.139 218.221C249.449 218.041 249.782 217.984 250.137 218.051C250.492 218.119 250.781 218.293 251.003 218.575C251.229 218.838 251.3 219.192 251.216 219.636C251.111 220.186 250.939 221.092 250.7 222.352C250.44 223.627 250.263 224.514 250.168 225.011C254.455 222.292 256.924 220.719 257.576 220.291C257.938 220.028 258.285 219.947 258.615 220.046C258.964 220.149 259.239 220.349 259.44 220.644C259.641 220.94 259.726 221.269 259.694 221.631C259.666 221.975 259.463 222.268 259.086 222.509C258.069 223.217 256.609 224.126 254.706 225.237C255.605 227.284 256.786 229.541 258.25 232.007C258.491 232.384 258.553 232.736 258.436 233.064C258.318 233.391 258.103 233.653 257.789 233.851C257.479 234.032 257.145 234.097 256.786 234.047C256.446 234.001 256.165 233.782 255.945 233.391ZM264.467 235.394C263.556 235.35 262.727 235.064 261.981 234.536C261.256 233.994 260.676 233.222 260.241 232.22C259.896 231.418 259.726 230.715 259.731 230.109C259.739 229.485 259.843 228.741 260.044 227.878C260.455 226.098 261.181 224.645 262.223 223.518C263.286 222.377 264.528 221.693 265.951 221.466C267.359 221.218 268.749 221.454 270.121 222.174C271.475 222.891 272.634 224.003 273.599 225.511C273.812 225.845 273.874 226.197 273.785 226.567C273.697 226.936 273.494 227.229 273.177 227.445C273.008 227.56 272.81 227.633 272.584 227.663C272.571 227.827 272.543 228.024 272.499 228.254C272.472 228.396 272.447 228.53 272.423 228.654C272.379 228.793 272.355 228.871 272.351 228.889L272.306 229.128C272.273 229.398 272.242 229.705 272.214 230.049C272.164 230.407 272.133 230.668 272.121 230.831C272.08 231.045 272.058 231.307 272.054 231.619C272.053 231.913 272.059 232.126 272.071 232.257C272.13 232.82 272.556 233.673 273.351 234.817C273.589 235.212 273.647 235.582 273.527 235.927C273.424 236.275 273.216 236.548 272.902 236.747C272.606 236.948 272.279 237.024 271.921 236.974C271.577 236.946 271.265 236.749 270.984 236.383C270.114 235.059 269.585 233.965 269.4 233.102C269.302 233.231 269.198 233.34 269.089 233.429C268.454 234.063 267.734 234.561 266.929 234.923C266.125 235.286 265.304 235.443 264.467 235.394ZM264.61 232.607C265.464 232.659 266.301 232.275 267.118 231.455C267.94 230.618 268.688 229.389 269.363 227.77L269.383 227.663C269.397 227.592 269.424 227.496 269.465 227.375C269.489 227.251 269.512 227.127 269.536 227.002C269.618 226.668 269.702 226.418 269.789 226.25C269.876 226.083 269.997 225.931 270.151 225.795C270.176 225.763 270.199 225.739 270.22 225.725C269.017 224.503 267.741 224.004 266.393 224.226C265.614 224.354 264.89 224.778 264.22 225.497C263.554 226.198 263.069 227.201 262.767 228.505C262.665 228.945 262.596 229.309 262.56 229.597C262.527 229.867 262.526 230.115 262.556 230.341C262.605 230.571 262.701 230.838 262.846 231.141C263.238 232.08 263.826 232.569 264.61 232.607Z" fill="white"/>
<rect x="187.591" y="145.279" width="255.905" height="58.3085" rx="29.1543" transform="rotate(-2.90939 187.591 145.279)" fill="#F5CEAB"/>
<path d="M235.994 178.874C235.963 178.261 235.924 177.313 235.877 176.03C235.83 174.748 235.772 173.611 235.704 172.619C235.654 171.644 235.587 170.689 235.504 169.752C235.453 169.103 235.373 168.247 235.265 167.185C235.139 166.142 235.038 165.215 234.96 164.405C234.883 163.595 234.835 162.828 234.816 162.105C234.793 161.654 234.912 161.313 235.172 161.083C235.431 160.852 235.742 160.737 236.104 160.737C236.465 160.718 236.787 160.82 237.069 161.041C237.352 161.261 237.504 161.589 237.527 162.022C237.545 162.745 237.593 163.502 237.669 164.295C237.745 165.069 237.845 165.968 237.969 166.994C238.073 167.966 238.152 168.803 238.205 169.506C238.29 170.461 238.357 171.416 238.405 172.373C238.475 173.383 238.534 174.538 238.582 175.838C238.63 177.157 238.671 178.123 238.702 178.737C238.725 179.188 238.607 179.538 238.348 179.786C238.088 180.016 237.778 180.141 237.417 180.159C237.056 180.178 236.734 180.085 236.453 179.882C236.17 179.662 236.017 179.326 235.994 178.874ZM243.26 178.586C243.111 177.436 242.984 176.366 242.879 175.376C242.772 174.332 242.699 173.431 242.661 172.672C242.612 172.078 242.57 171.428 242.534 170.725C242.499 170.021 242.454 169.326 242.401 168.641C242.367 167.955 242.327 167.351 242.282 166.829C242.26 166.396 242.379 166.055 242.637 165.806C242.896 165.558 243.206 165.425 243.567 165.406C243.927 165.37 244.248 165.453 244.53 165.656C244.811 165.859 244.964 166.186 244.987 166.637L245.26 170.939C247.079 170.774 249.099 170.635 251.319 170.522C251.249 169.513 251.125 168.144 250.947 166.415C250.906 165.965 251.006 165.616 251.247 165.369C251.506 165.12 251.806 164.978 252.148 164.943C252.508 164.907 252.838 164.989 253.138 165.191C253.437 165.375 253.606 165.683 253.646 166.115C254.006 169.644 254.296 173.565 254.515 177.879C254.538 178.33 254.42 178.68 254.162 178.928C253.902 179.158 253.592 179.283 253.231 179.301C252.87 179.32 252.548 179.227 252.266 179.024C251.984 178.804 251.831 178.468 251.808 178.016C251.717 176.229 251.627 174.633 251.537 173.226C249.281 173.34 247.253 173.48 245.451 173.644C245.566 175.194 245.734 176.705 245.953 178.178C246.011 178.609 245.921 178.958 245.681 179.223C245.459 179.488 245.169 179.657 244.811 179.729C244.452 179.784 244.113 179.719 243.797 179.536C243.498 179.352 243.319 179.036 243.26 178.586ZM263.897 177.456C263.92 177.907 263.801 178.248 263.541 178.479C263.282 178.709 262.971 178.824 262.609 178.825C262.248 178.843 261.926 178.742 261.644 178.521C261.361 178.3 261.209 177.973 261.187 177.54C261.038 172.842 260.865 169.44 260.668 167.333C260.379 167.348 259.873 167.364 259.15 167.383C258.409 167.402 257.84 167.422 257.443 167.443C256.992 167.465 256.651 167.347 256.421 167.087C256.191 166.828 256.066 166.517 256.048 166.156C256.048 165.794 256.158 165.472 256.379 165.189C256.6 164.907 256.927 164.754 257.36 164.732C262.166 164.579 265.253 164.44 266.622 164.316C267.072 164.275 267.421 164.384 267.67 164.643C267.917 164.883 268.05 165.184 268.069 165.545C268.104 165.887 268.021 166.208 267.819 166.508C267.635 166.807 267.318 166.977 266.868 167.018C265.823 167.107 264.659 167.184 263.378 167.249C263.577 169.393 263.75 172.795 263.897 177.456ZM281.691 175.71C280.956 176.562 280.084 177.195 279.073 177.608C278.081 178.02 277.059 178.208 276.008 178.171C274.957 178.152 273.984 177.885 273.09 177.369C272.16 176.873 271.376 176.226 270.738 175.426C270.117 174.607 269.708 173.677 269.511 172.638C269.33 171.579 269.435 170.434 269.825 169.202C270.196 167.971 270.75 166.929 271.484 166.077C272.237 165.225 273.1 164.584 274.074 164.154C275.047 163.725 276.052 163.547 277.087 163.621C278.158 163.693 279.125 164.024 279.987 164.614C280.868 165.202 281.578 165.999 282.117 167.003C282.657 168.007 282.961 169.186 283.03 170.539C283.056 171.045 282.859 171.444 282.439 171.737C282.179 171.949 281.876 172.046 281.531 172.027C279.281 171.906 276.239 172.043 272.405 172.437L272.351 172.439C272.553 173.225 272.93 173.876 273.481 174.39C274.031 174.887 274.672 175.217 275.404 175.378C276.154 175.539 276.904 175.51 277.653 175.291C278.401 175.054 279.065 174.595 279.646 173.914C279.937 173.592 280.255 173.44 280.6 173.459C280.962 173.458 281.275 173.578 281.541 173.818C281.805 174.04 281.965 174.33 282.019 174.689C282.091 175.03 281.982 175.37 281.691 175.71ZM272.509 169.69C275.588 169.389 278.124 169.251 280.116 169.276C279.869 168.348 279.444 167.636 278.84 167.142C278.254 166.647 277.607 166.382 276.9 166.345C276.028 166.281 275.181 166.532 274.359 167.099C273.537 167.665 272.921 168.529 272.509 169.69ZM286.63 181.757C286.496 180.533 286.379 179.299 286.279 178.056C286.215 177.136 286.147 176.172 286.078 175.162C286.009 174.152 285.942 173.187 285.877 172.268C285.83 171.347 285.781 170.562 285.73 169.914C285.449 169.729 285.264 169.467 285.174 169.128C285.084 168.77 285.121 168.443 285.287 168.145L285.562 167.669C285.482 166.823 285.405 166.021 285.331 165.265C285.294 164.887 285.394 164.556 285.633 164.273C285.871 163.971 286.17 163.802 286.53 163.766C286.854 163.731 287.148 163.807 287.41 163.992C287.691 164.177 287.885 164.421 287.99 164.723C288.164 164.569 288.346 164.424 288.538 164.288C289.619 163.473 290.7 163.02 291.781 162.929C292.879 162.819 293.867 163.04 294.746 163.592C295.549 164.076 296.225 164.748 296.776 165.606C297.325 166.447 297.726 167.386 297.977 168.423C298.543 170.656 298.408 172.626 297.572 174.333C297.08 175.335 296.378 176.122 295.466 176.693C294.572 177.263 293.491 177.536 292.223 177.51C291.734 177.498 291.325 177.465 290.997 177.409C290.669 177.371 290.349 177.297 290.035 177.186C289.74 177.075 289.379 176.912 288.952 176.699L288.896 176.674C289.022 178.441 289.167 180.035 289.33 181.457C289.37 181.907 289.262 182.256 289.003 182.505C288.762 182.752 288.462 182.894 288.102 182.931C287.76 182.984 287.44 182.91 287.14 182.708C286.841 182.524 286.671 182.207 286.63 181.757ZM292.248 174.794C293.624 174.814 294.583 174.268 295.123 173.155C295.663 172.024 295.739 170.672 295.352 169.099C295.17 168.366 294.892 167.72 294.52 167.16C294.166 166.599 293.774 166.184 293.344 165.917C292.429 165.366 291.371 165.537 290.167 166.431C289.453 166.974 288.843 167.62 288.339 168.37L288.657 173.022C289.042 173.491 289.245 173.734 289.264 173.751C289.359 173.855 289.667 174.038 290.187 174.301C290.484 174.449 290.716 174.555 290.882 174.619C291.066 174.682 291.249 174.727 291.432 174.754C291.632 174.78 291.904 174.793 292.248 174.794ZM305.868 176.572C304.972 176.744 304.099 176.662 303.25 176.325C302.418 175.969 301.672 175.355 301.012 174.484C300.488 173.787 300.157 173.143 300.018 172.553C299.879 171.945 299.805 171.198 299.796 170.312C299.775 168.485 300.138 166.901 300.884 165.56C301.648 164.201 302.694 163.243 304.023 162.687C305.333 162.113 306.739 162.015 308.242 162.391C309.727 162.768 311.116 163.575 312.409 164.812C312.695 165.087 312.838 165.414 312.839 165.794C312.841 166.174 312.713 166.507 312.456 166.791C312.319 166.943 312.144 167.06 311.931 167.143C311.957 167.305 311.976 167.503 311.988 167.738C311.995 167.882 312.002 168.017 312.009 168.144C311.998 168.289 311.993 168.371 311.994 168.389L312.006 168.632C312.038 168.902 312.081 169.208 312.134 169.549C312.171 169.909 312.202 170.17 312.228 170.331C312.239 170.548 312.28 170.808 312.35 171.112C312.418 171.398 312.474 171.604 312.517 171.728C312.707 172.261 313.323 172.99 314.365 173.914C314.689 174.241 314.833 174.587 314.798 174.951C314.78 175.314 314.642 175.628 314.384 175.895C314.144 176.16 313.844 176.311 313.484 176.348C313.143 176.401 312.793 176.283 312.435 175.994C311.276 174.913 310.504 173.975 310.12 173.18C310.055 173.328 309.981 173.458 309.896 173.571C309.428 174.337 308.846 174.991 308.15 175.533C307.454 176.075 306.693 176.421 305.868 176.572ZM305.349 173.83C306.192 173.678 306.914 173.108 307.515 172.118C308.115 171.11 308.552 169.74 308.826 168.007L308.82 167.899C308.817 167.826 308.821 167.727 308.832 167.599C308.826 167.473 308.82 167.347 308.813 167.22C308.814 166.877 308.837 166.613 308.881 166.43C308.926 166.247 309.008 166.07 309.126 165.902C309.142 165.865 309.159 165.837 309.176 165.818C307.719 164.915 306.361 164.73 305.104 165.265C304.377 165.573 303.774 166.156 303.292 167.012C302.81 167.851 302.576 168.94 302.59 170.278C302.595 170.73 302.613 171.1 302.646 171.388C302.678 171.658 302.735 171.899 302.819 172.112C302.92 172.324 303.077 172.561 303.289 172.821C303.892 173.641 304.578 173.977 305.349 173.83ZM327.07 175.114C325.066 173.081 323.368 171.177 321.975 169.402L319.822 171.9L319.798 171.955C319.912 172.782 320.045 173.616 320.196 174.459C320.291 174.889 320.227 175.245 320.006 175.527C319.785 175.792 319.494 175.952 319.135 176.006C318.795 176.078 318.467 176.04 318.152 175.893C317.854 175.727 317.658 175.421 317.562 174.973C317.367 173.97 317.206 172.946 317.081 171.903C316.953 170.824 316.875 169.996 316.846 169.418C316.795 168.769 316.75 168.066 316.711 167.308C316.672 166.531 316.633 165.773 316.596 165.033C316.575 164.274 316.55 163.597 316.52 163.002C316.497 162.55 316.615 162.209 316.875 161.979C317.134 161.731 317.444 161.597 317.805 161.579C318.166 161.561 318.487 161.662 318.77 161.883C319.052 162.086 319.204 162.413 319.227 162.864C319.256 163.423 319.302 164.344 319.367 165.625C319.415 166.926 319.452 167.829 319.478 168.334C323.002 164.681 325.03 162.569 325.562 161.999C325.852 161.659 326.17 161.498 326.515 161.516C326.877 161.534 327.192 161.663 327.457 161.903C327.723 162.143 327.883 162.442 327.937 162.801C327.991 163.142 327.863 163.475 327.553 163.798C326.732 164.726 325.528 165.955 323.941 167.483C325.298 169.26 326.978 171.174 328.983 173.226C329.306 173.535 329.449 173.862 329.412 174.208C329.376 174.554 329.228 174.86 328.971 175.126C328.712 175.375 328.402 175.517 328.042 175.553C327.7 175.589 327.376 175.442 327.07 175.114ZM337.239 173.729C337.262 174.18 337.143 174.521 336.884 174.751C336.624 174.982 336.313 175.097 335.951 175.097C335.59 175.116 335.268 175.014 334.986 174.793C334.703 174.572 334.551 174.245 334.529 173.812C334.38 169.115 334.207 165.713 334.01 163.606C333.721 163.62 333.215 163.637 332.492 163.655C331.751 163.675 331.182 163.695 330.785 163.715C330.334 163.738 329.993 163.62 329.763 163.36C329.533 163.1 329.408 162.79 329.39 162.429C329.39 162.067 329.5 161.745 329.721 161.462C329.942 161.179 330.269 161.027 330.702 161.005C335.508 160.851 338.595 160.712 339.964 160.589C340.414 160.548 340.764 160.657 341.012 160.915C341.259 161.156 341.392 161.457 341.411 161.818C341.446 162.16 341.363 162.481 341.161 162.781C340.977 163.08 340.66 163.249 340.21 163.29C339.165 163.38 338.001 163.457 336.72 163.522C336.919 165.665 337.092 169.068 337.239 173.729ZM344.901 174.507C344.398 174.206 344.185 173.765 344.264 173.182C344.244 173.147 344.233 173.111 344.231 173.075C344.148 172.5 344.071 171.871 344 171.187C343.946 170.484 343.894 169.826 343.845 169.213C343.813 168.581 343.797 168.084 343.797 167.723C343.786 167.506 343.778 167.172 343.773 166.719C343.786 166.266 343.788 165.769 343.778 165.226C343.786 164.665 343.785 164.122 343.777 163.598C343.767 163.055 343.763 162.603 343.762 162.241C343.779 161.86 343.785 161.625 343.781 161.535C343.779 161.137 343.907 160.822 344.167 160.592C344.444 160.343 344.763 160.209 345.124 160.191C345.485 160.172 345.808 160.301 346.093 160.576C346.227 160.714 346.327 161.079 346.393 161.673C346.459 162.249 346.503 162.934 346.525 163.729C346.565 164.524 346.579 165.328 346.566 166.143C346.571 166.939 346.57 167.645 346.565 168.26C346.56 168.858 346.561 169.238 346.569 169.4L348.366 166.839C349.95 164.533 351.138 162.455 351.931 160.605C352.146 160.214 352.478 159.98 352.927 159.903C353.068 159.841 353.22 159.797 353.381 159.771C353.759 159.734 354.09 159.834 354.374 160.073C354.675 160.293 354.844 160.592 354.881 160.97C355.043 162.736 355.175 164.81 355.279 167.193C355.355 169.759 355.449 171.609 355.561 172.743C355.602 173.194 355.493 173.543 355.234 173.791C354.993 174.039 354.692 174.172 354.331 174.19C353.989 174.226 353.669 174.151 353.37 173.968C353.07 173.766 352.9 173.44 352.859 172.989C352.746 171.837 352.65 169.942 352.57 167.304L352.48 165.544L350.589 168.382C348.616 171.232 347.337 173.125 346.752 174.06C346.551 174.378 346.271 174.582 345.914 174.672C345.557 174.763 345.219 174.708 344.901 174.507ZM361.787 174.218C361.431 174.345 361.086 174.317 360.751 174.135C360.417 173.971 360.196 173.711 360.087 173.355C360.023 173.159 359.968 172.972 359.923 172.793C359.882 172.705 359.85 172.616 359.828 172.527C359.556 171.455 359.337 170.353 359.171 169.221C359.004 168.072 358.853 166.695 358.717 165.091C358.581 163.488 358.48 162.389 358.414 161.795C358.354 161.69 358.303 161.575 358.261 161.45C358.194 161.2 358.199 160.947 358.276 160.689C358.297 160.381 358.409 160.104 358.614 159.858C358.837 159.611 359.11 159.462 359.433 159.409C359.739 159.375 360.022 159.424 360.282 159.556C361.714 159.248 363.035 159.081 364.246 159.056C365.42 159.014 366.412 159.127 367.222 159.393C368.436 159.784 369.213 160.477 369.554 161.473C370.007 162.916 369.843 164.137 369.061 165.136C368.943 165.305 368.806 165.465 368.651 165.618C368.762 165.667 368.865 165.734 368.96 165.819C369.727 166.305 370.255 166.912 370.545 167.639C370.835 168.348 370.872 169.079 370.657 169.832C370.491 170.492 370.16 171.097 369.663 171.647C369.184 172.178 368.608 172.596 367.936 172.902C366.767 173.413 364.962 173.668 362.519 173.666C362.334 173.946 362.09 174.131 361.787 174.218ZM362.244 170.938C363.042 170.97 363.865 170.955 364.712 170.894C365.577 170.814 366.283 170.651 366.832 170.406C367.504 170.101 367.908 169.682 368.044 169.15C368.15 168.747 367.969 168.385 367.5 168.065C366.882 167.662 365.943 167.52 364.682 167.638C363.944 167.712 362.976 167.897 361.779 168.193C361.904 169.218 362.059 170.133 362.244 170.938ZM361.468 165.277C363.194 165.063 364.545 164.759 365.52 164.366C366.212 164.095 366.677 163.8 366.914 163.48C367.102 163.254 367.141 162.962 367.032 162.606C366.963 162.302 366.753 162.086 366.402 161.959C365.888 161.804 365.188 161.741 364.303 161.767C363.381 161.796 362.338 161.922 361.173 162.144C361.25 162.936 361.348 163.98 361.468 165.277ZM373.79 171.953C373.641 170.802 373.514 169.732 373.409 168.742C373.302 167.698 373.229 166.797 373.19 166.039C373.142 165.444 373.1 164.795 373.064 164.091C373.028 163.387 372.984 162.692 372.931 162.007C372.896 161.322 372.857 160.717 372.812 160.195C372.79 159.762 372.908 159.421 373.167 159.173C373.426 158.924 373.736 158.791 374.097 158.772C374.457 158.736 374.778 158.819 375.06 159.022C375.341 159.225 375.494 159.552 375.517 160.003L375.789 164.305C377.609 164.14 379.628 164.001 381.848 163.889C381.779 162.879 381.655 161.51 381.477 159.782C381.436 159.331 381.536 158.982 381.777 158.735C382.035 158.487 382.336 158.345 382.678 158.309C383.038 158.273 383.368 158.356 383.668 158.557C383.966 158.741 384.136 159.049 384.176 159.482C384.536 163.01 384.826 166.931 385.045 171.245C385.068 171.696 384.95 172.046 384.691 172.294C384.432 172.525 384.121 172.649 383.76 172.667C383.399 172.686 383.078 172.593 382.796 172.391C382.514 172.17 382.361 171.834 382.338 171.383C382.247 169.596 382.157 167.999 382.067 166.592C379.811 166.707 377.782 166.846 375.981 167.01C376.096 168.56 376.263 170.072 376.483 171.544C376.541 171.976 376.45 172.324 376.211 172.59C375.989 172.854 375.699 173.023 375.34 173.095C374.981 173.15 374.643 173.086 374.326 172.903C374.027 172.719 373.849 172.402 373.79 171.953ZM392.838 172.152C391.617 171.979 390.6 171.542 389.786 170.841C388.971 170.123 388.357 169.258 387.944 168.248C387.549 167.236 387.359 166.178 387.376 165.073C387.377 164.042 387.544 163.038 387.874 162.062C388.187 161.105 388.713 160.237 389.452 159.458C390.208 158.677 391.106 158.188 392.146 157.991C392.306 157.947 392.486 157.919 392.684 157.909C392.982 157.713 393.304 157.633 393.649 157.67L393.813 157.689C393.976 157.681 394.23 157.695 394.575 157.732C394.938 157.749 395.24 157.806 395.48 157.903C396.567 158.282 397.478 158.941 398.213 159.881C398.931 160.822 399.426 161.837 399.698 162.927C399.971 164.017 400.062 165.107 399.973 166.198C399.796 168.052 399.139 169.542 398.002 170.668C396.657 171.985 394.936 172.479 392.838 172.152ZM393.245 169.471C394.467 169.662 395.423 169.415 396.112 168.728C396.766 168.08 397.154 167.155 397.273 165.955C397.34 165.137 397.274 164.353 397.073 163.603C396.872 162.854 396.567 162.209 396.16 161.668C395.751 161.11 395.27 160.718 394.716 160.493C394.454 160.687 394.169 160.774 393.86 160.754C393.824 160.756 393.542 160.716 393.013 160.634C392.85 160.624 392.732 160.621 392.66 160.625C391.943 160.77 391.335 161.262 390.835 162.102C390.334 162.924 390.085 163.913 390.09 165.071C390.077 166.248 390.354 167.238 390.919 168.042C391.467 168.847 392.242 169.323 393.245 169.471Z" fill="black"/>
<rect x="255.197" y="57.47" width="255.905" height="58.3085" rx="29.1543" transform="rotate(8.93022 255.197 57.47)" fill="url(#paint2_linear_225_34)"/>
<path d="M290.264 99.4313C290.359 98.8243 290.516 97.8884 290.733 96.6236C290.95 95.3588 291.126 94.2341 291.263 93.2493C291.414 92.2853 291.545 91.3362 291.655 90.4022C291.738 89.7567 291.836 88.9031 291.948 87.8413C292.039 86.7946 292.13 85.8667 292.221 85.0577C292.311 84.2487 292.422 83.4886 292.552 82.7772C292.622 82.3309 292.808 82.0217 293.109 81.8495C293.411 81.6773 293.738 81.6282 294.093 81.7022C294.45 81.7583 294.744 81.9234 294.975 82.1976C295.207 82.4718 295.289 82.8231 295.221 83.2516C295.091 83.9629 294.982 84.7142 294.895 85.5053C294.81 86.2786 294.723 87.1797 294.634 88.2086C294.536 89.1811 294.442 90.0169 294.35 90.7159C294.237 91.6678 294.106 92.6168 293.958 93.563C293.818 94.5656 293.639 95.7082 293.419 96.9909C293.196 98.2914 293.037 99.2451 292.942 99.8521C292.872 100.298 292.685 100.617 292.38 100.807C292.079 100.979 291.75 101.037 291.393 100.981C291.036 100.925 290.74 100.768 290.506 100.512C290.274 100.238 290.194 99.8776 290.264 99.4313ZM297.434 100.64C297.524 99.4836 297.62 98.4101 297.72 97.4198C297.83 96.3759 297.943 95.479 298.061 94.7292C298.136 94.1372 298.228 93.4931 298.337 92.7968C298.446 92.1005 298.546 91.4118 298.634 90.7305C298.741 90.0521 298.826 89.4526 298.889 88.9321C298.957 88.5036 299.143 88.1943 299.447 88.0043C299.751 87.8143 300.082 87.7474 300.439 87.8035C300.799 87.8417 301.096 87.989 301.33 88.2453C301.564 88.5017 301.646 88.853 301.576 89.2993L300.96 93.5658C302.775 93.7777 304.78 94.0562 306.976 94.4012C307.115 93.3987 307.275 92.0334 307.455 90.3054C307.507 89.8563 307.676 89.5353 307.963 89.3425C308.267 89.1525 308.59 89.0752 308.932 89.1107C309.292 89.1489 309.598 89.2976 309.85 89.5567C310.105 89.798 310.208 90.1343 310.158 90.5656C309.787 94.0929 309.266 97.99 308.595 102.257C308.525 102.703 308.338 103.021 308.034 103.211C307.732 103.384 307.403 103.442 307.046 103.386C306.689 103.329 306.393 103.173 306.159 102.917C305.928 102.643 305.847 102.282 305.917 101.836C306.195 100.069 306.434 98.4872 306.635 97.0919C304.404 96.7412 302.39 96.4613 300.593 96.2522C300.388 97.7932 300.241 99.3069 300.154 100.793C300.122 101.227 299.962 101.55 299.673 101.76C299.401 101.974 299.083 102.079 298.717 102.077C298.355 102.056 298.037 101.924 297.764 101.68C297.51 101.439 297.399 101.092 297.434 100.64ZM322.762 109.093L323.259 105.933L322.589 105.828C321.694 105.706 320.414 105.523 318.751 105.28C318.376 105.221 317.903 105.146 317.332 105.057C316.776 104.988 316.221 104.91 315.667 104.823C315.114 104.736 314.63 104.669 314.217 104.622C313.821 104.578 313.579 104.549 313.49 104.535C313.447 104.693 313.338 105.326 313.164 106.432C313.094 106.879 312.908 107.188 312.607 107.36C312.303 107.55 311.972 107.617 311.615 107.561C311.258 107.505 310.964 107.34 310.732 107.066C310.498 106.809 310.416 106.458 310.486 106.012C310.66 104.905 310.852 103.856 311.063 102.864C311.123 102.599 311.252 102.363 311.449 102.156C311.766 101.767 312.185 101.604 312.705 101.668C315.114 98.3327 316.575 95.0315 317.088 91.7643C317.147 91.3894 317.321 91.0966 317.61 90.8859C317.92 90.6602 318.263 90.5768 318.638 90.6357C318.763 90.6553 318.885 90.6928 319.004 90.7482L319.031 90.7524C319.266 90.771 320.395 90.921 322.418 91.2023C323.313 91.3247 323.984 91.421 324.43 91.4911L325.475 91.6552C325.528 91.6636 325.581 91.681 325.631 91.7072C325.682 91.7335 325.742 91.7612 325.81 91.7903C326.046 91.9188 326.228 92.1028 326.355 92.3423C326.454 92.5226 326.514 92.7241 326.534 92.9468C326.523 93.0182 326.519 93.0999 326.523 93.192C326.521 93.3198 326.506 93.4729 326.478 93.6515L326.297 94.803C326.173 95.4786 325.951 96.6603 325.631 98.3479C325.047 101.366 324.725 103.063 324.666 103.438L324.747 103.45C324.815 103.479 324.876 103.498 324.93 103.506C325.088 103.55 325.241 103.619 325.391 103.716C325.687 103.927 325.878 104.223 325.965 104.602C326.002 104.718 326.018 104.848 326.013 104.994C326.024 105.16 326.018 105.37 325.997 105.622C325.974 106.003 325.913 106.506 325.815 107.131L325.44 109.514C325.37 109.96 325.184 110.27 324.883 110.442C324.578 110.632 324.248 110.699 323.891 110.643C323.534 110.586 323.239 110.421 323.008 110.147C322.774 109.891 322.692 109.54 322.762 109.093ZM315.709 102.112C317.161 102.304 318.306 102.466 319.145 102.598C320.273 102.756 321.22 102.896 321.988 103.017C322.07 102.499 322.397 100.767 322.969 97.82C323.284 96.168 323.503 95.0043 323.628 94.3286L323.661 94.1144C323.197 94.0415 322.66 93.9662 322.05 93.8887C321.012 93.7438 320.161 93.6284 319.498 93.5425C318.841 96.4396 317.579 99.2962 315.709 102.112ZM329.048 106.706C328.617 106.309 328.499 105.833 328.696 105.278C328.684 105.24 328.681 105.203 328.686 105.167C328.722 104.587 328.776 103.955 328.847 103.271C328.938 102.572 329.023 101.918 329.1 101.308C329.199 100.683 329.285 100.194 329.359 99.8393C329.392 99.625 329.453 99.2962 329.541 98.8526C329.647 98.4119 329.751 97.9252 329.853 97.3924C329.976 96.8445 330.087 96.3131 330.186 95.7982C330.288 95.2654 330.376 94.8219 330.45 94.4676C330.544 94.0983 330.599 93.869 330.613 93.7797C330.692 93.3898 330.883 93.1087 331.184 92.9366C331.506 92.7493 331.846 92.6838 332.203 92.7399C332.56 92.796 332.85 92.9879 333.073 93.3157C333.176 93.4781 333.198 93.8568 333.142 94.4515C333.087 95.0284 332.99 95.7083 332.848 96.491C332.725 97.2766 332.573 98.0668 332.394 98.8618C332.234 99.6417 332.089 100.332 331.958 100.934C331.83 101.517 331.753 101.889 331.728 102.05L334.012 99.9119C336.036 97.9797 337.625 96.1896 338.78 94.5418C339.071 94.2033 339.444 94.0424 339.899 94.059C340.05 94.0278 340.207 94.016 340.371 94.0234C340.749 94.0644 341.052 94.231 341.28 94.523C341.53 94.8 341.634 95.1273 341.593 95.5051C341.389 97.2659 341.093 99.3233 340.705 101.677C340.253 104.204 339.966 106.034 339.842 107.167C339.79 107.616 339.612 107.936 339.308 108.126C339.021 108.319 338.699 108.387 338.342 108.331C338 108.295 337.702 108.157 337.447 107.916C337.195 107.657 337.095 107.302 337.148 106.853C337.273 105.702 337.568 103.828 338.031 101.229L338.305 99.4888L335.871 101.878C333.356 104.263 331.716 105.853 330.951 106.648C330.689 106.918 330.374 107.06 330.005 107.076C329.637 107.091 329.318 106.968 329.048 106.706ZM345.633 109.888C345.259 109.939 344.927 109.841 344.637 109.594C344.343 109.365 344.18 109.065 344.147 108.694C344.124 108.489 344.109 108.295 344.102 108.111C344.08 108.016 344.067 107.922 344.063 107.83C344.017 106.725 344.029 105.602 344.099 104.461C344.171 103.301 344.306 101.923 344.502 100.325C344.698 98.728 344.824 97.6319 344.881 97.0372C344.844 96.9216 344.818 96.7986 344.802 96.668C344.788 96.4096 344.845 96.1625 344.973 95.9266C345.057 95.6287 345.224 95.3805 345.475 95.1821C345.743 94.9864 346.041 94.896 346.368 94.9108C346.674 94.9407 346.941 95.0466 347.169 95.2287C348.633 95.2211 349.961 95.3291 351.151 95.5527C352.309 95.753 353.257 96.0665 353.995 96.4935C355.103 97.125 355.721 97.963 355.85 99.0077C355.998 100.513 355.586 101.674 354.616 102.491C354.466 102.632 354.3 102.761 354.116 102.879C354.215 102.949 354.302 103.036 354.377 103.139C355.028 103.772 355.421 104.474 355.556 105.246C355.693 105.999 355.58 106.722 355.215 107.415C354.917 108.027 354.469 108.551 353.87 108.987C353.292 109.408 352.642 109.7 351.922 109.861C350.673 110.122 348.854 110.001 346.463 109.497C346.225 109.734 345.948 109.864 345.633 109.888ZM346.754 106.771C347.529 106.966 348.337 107.121 349.179 107.235C350.041 107.334 350.766 107.319 351.353 107.192C352.074 107.031 352.555 106.704 352.797 106.212C352.984 105.838 352.881 105.447 352.487 105.038C351.966 104.517 351.076 104.185 349.818 104.042C349.08 103.963 348.095 103.945 346.862 103.989C346.774 105.018 346.738 105.945 346.754 106.771ZM347.156 101.072C348.89 101.216 350.274 101.196 351.309 101.011C352.042 100.888 352.557 100.695 352.855 100.431C353.085 100.247 353.183 99.9699 353.15 99.5988C353.144 99.2869 352.983 99.0328 352.666 98.8367C352.194 98.5796 351.522 98.3734 350.65 98.2181C349.743 98.0572 348.696 97.9659 347.51 97.9442C347.422 98.7354 347.304 99.7779 347.156 101.072ZM357.832 110.049C357.966 109.192 358.186 107.388 358.49 104.636C358.834 101.745 359.133 99.615 359.384 98.2459C359.469 97.8202 359.672 97.5227 359.991 97.3534C360.31 97.184 360.638 97.1349 360.975 97.2061C361.332 97.2622 361.617 97.4259 361.83 97.6973C362.062 97.9715 362.133 98.3303 362.045 98.7738C361.808 100.054 361.522 102.103 361.189 104.923C360.899 107.585 360.672 109.434 360.51 110.469C360.439 110.916 360.252 111.234 359.948 111.424C359.646 111.596 359.317 111.654 358.96 111.598C358.603 111.542 358.307 111.386 358.073 111.129C357.842 110.855 357.761 110.495 357.832 110.049ZM362.468 92.9404C362.742 93.2944 362.834 93.6382 362.745 93.9718C362.656 94.3054 362.466 94.5865 362.174 94.815C361.884 95.0257 361.558 95.1208 361.196 95.1004C360.851 95.0828 360.552 94.8895 360.299 94.5204C360.025 94.1664 359.933 93.8226 360.022 93.489C360.114 93.1376 360.304 92.8565 360.594 92.6458C360.901 92.438 361.227 92.3428 361.571 92.3604C361.916 92.378 362.215 92.5714 362.468 92.9404ZM374.596 117.238L375.093 114.078L374.423 113.973C373.528 113.851 372.248 113.668 370.585 113.425C370.21 113.366 369.737 113.291 369.166 113.202C368.61 113.133 368.055 113.055 367.501 112.968C366.948 112.881 366.464 112.814 366.051 112.767C365.655 112.723 365.413 112.694 365.324 112.68C365.281 112.838 365.172 113.471 364.998 114.577C364.928 115.024 364.742 115.333 364.441 115.505C364.136 115.695 363.806 115.762 363.449 115.706C363.092 115.65 362.797 115.485 362.566 115.211C362.332 114.954 362.25 114.603 362.32 114.157C362.494 113.05 362.686 112.001 362.897 111.009C362.957 110.744 363.085 110.508 363.283 110.301C363.6 109.912 364.019 109.749 364.539 109.813C366.948 106.478 368.409 103.176 368.922 99.9093C368.981 99.5344 369.155 99.2416 369.444 99.0309C369.754 98.8052 370.096 98.7218 370.471 98.7807C370.596 98.8003 370.719 98.8378 370.838 98.8932L370.865 98.8974C371.1 98.916 372.229 99.0659 374.252 99.3473C375.147 99.4697 375.818 99.5659 376.264 99.6361L377.309 99.8002C377.362 99.8086 377.414 99.826 377.465 99.8522C377.516 99.8785 377.576 99.9062 377.644 99.9352C377.88 100.064 378.062 100.248 378.189 100.487C378.288 100.668 378.348 100.869 378.368 101.092C378.357 101.163 378.353 101.245 378.357 101.337C378.355 101.465 378.34 101.618 378.312 101.796L378.131 102.948C378.007 103.624 377.785 104.805 377.464 106.493C376.88 109.511 376.559 111.208 376.5 111.583L376.58 111.595C376.649 111.624 376.71 111.643 376.764 111.651C376.921 111.695 377.075 111.764 377.225 111.861C377.521 112.072 377.712 112.368 377.799 112.747C377.836 112.863 377.852 112.993 377.847 113.139C377.858 113.305 377.852 113.515 377.831 113.767C377.807 114.148 377.747 114.651 377.649 115.276L377.274 117.659C377.204 118.105 377.018 118.415 376.717 118.587C376.412 118.777 376.082 118.844 375.725 118.788C375.368 118.731 375.073 118.566 374.842 118.292C374.608 118.036 374.526 117.684 374.596 117.238ZM367.543 110.257C368.995 110.449 370.14 110.611 370.979 110.743C372.107 110.901 373.054 111.041 373.822 111.162C373.903 110.644 374.23 108.912 374.803 105.965C375.118 104.313 375.337 103.149 375.462 102.474L375.495 102.259C375.031 102.186 374.494 102.111 373.884 102.034C372.846 101.889 371.995 101.773 371.332 101.687C370.675 104.585 369.412 107.441 367.543 110.257ZM380.55 119.93C380.12 119.99 379.778 119.9 379.523 119.659C379.268 119.418 379.114 119.119 379.06 118.763C379.006 118.407 379.067 118.078 379.242 117.776C379.436 117.477 379.756 117.299 380.204 117.241C380.391 117.216 380.568 117.198 380.734 117.187C380.883 117.174 380.985 117.163 381.042 117.153L381.202 117.179C381.259 117.169 381.316 117.151 381.375 117.123C381.825 116.938 382.467 116.289 383.301 115.176L383.305 115.149L383.268 115.033C382.042 110.962 381.204 106.632 380.754 102.043C380.706 101.651 380.795 101.318 381.021 101.042C381.265 100.769 381.565 100.606 381.921 100.552C382.298 100.484 382.641 100.574 382.949 100.824C383.239 101.071 383.401 101.38 383.434 101.751C383.795 105.393 384.405 108.846 385.264 112.109L385.913 110.949C386.451 109.972 386.964 108.974 387.454 107.953C387.944 106.932 388.376 105.985 388.751 105.111C389.129 104.219 389.417 103.496 389.614 102.941C389.752 102.524 389.986 102.259 390.315 102.146C390.646 102.015 390.978 102.003 391.308 102.11C391.657 102.219 391.926 102.426 392.116 102.731C392.306 103.035 392.322 103.403 392.162 103.836C391.856 104.739 391.34 105.984 390.615 107.571C389.89 109.159 389.114 110.72 388.287 112.255C387.282 114.109 386.35 115.618 385.49 116.782C384.334 118.32 383.288 119.272 382.353 119.637C382.098 119.743 381.803 119.816 381.468 119.855C381.337 119.871 381.161 119.889 380.938 119.909C380.733 119.931 380.604 119.938 380.55 119.93ZM397.123 117.485C396.211 117.47 395.373 117.21 394.611 116.706C393.869 116.187 393.265 115.434 392.799 114.446C392.429 113.656 392.237 112.958 392.222 112.352C392.21 111.728 392.291 110.981 392.464 110.112C392.819 108.32 393.499 106.845 394.504 105.685C395.53 104.511 396.751 103.788 398.166 103.517C399.565 103.224 400.962 103.416 402.356 104.093C403.732 104.766 404.926 105.841 405.938 107.317C406.161 107.645 406.234 107.995 406.157 108.367C406.08 108.739 405.887 109.038 405.577 109.264C405.412 109.384 405.216 109.463 404.991 109.501C404.984 109.665 404.962 109.862 404.925 110.094C404.903 110.237 404.882 110.371 404.862 110.496C404.822 110.636 404.8 110.715 404.797 110.733L404.76 110.974C404.735 111.245 404.714 111.552 404.697 111.897C404.659 112.257 404.636 112.519 404.628 112.682C404.595 112.896 404.581 113.16 404.587 113.471C404.595 113.766 404.608 113.978 404.624 114.108C404.7 114.669 405.154 115.509 405.984 116.627C406.234 117.014 406.305 117.382 406.195 117.731C406.103 118.082 405.904 118.362 405.597 118.57C405.307 118.78 404.983 118.866 404.623 118.828C404.278 118.811 403.96 118.623 403.669 118.267C402.756 116.971 402.194 115.894 401.981 115.038C401.887 115.169 401.787 115.282 401.681 115.375C401.066 116.028 400.362 116.549 399.569 116.936C398.777 117.324 397.961 117.507 397.123 117.485ZM397.177 114.695C398.033 114.719 398.857 114.309 399.648 113.464C400.443 112.601 401.152 111.349 401.775 109.709L401.792 109.602C401.803 109.531 401.828 109.434 401.865 109.312C401.885 109.187 401.904 109.062 401.924 108.937C401.995 108.6 402.071 108.347 402.153 108.177C402.235 108.007 402.351 107.851 402.501 107.71C402.524 107.677 402.546 107.653 402.567 107.638C401.326 106.456 400.035 105.997 398.695 106.262C397.921 106.414 397.21 106.861 396.563 107.601C395.919 108.323 395.467 109.34 395.206 110.653C395.118 111.096 395.06 111.462 395.033 111.751C395.009 112.021 395.016 112.269 395.053 112.495C395.109 112.723 395.214 112.987 395.368 113.285C395.79 114.211 396.393 114.681 397.177 114.695ZM408.769 119.48C408.33 119.594 407.973 119.538 407.698 119.311C407.42 119.103 407.234 118.827 407.142 118.483C407.068 118.142 407.1 117.818 407.24 117.511C407.4 117.188 407.7 116.97 408.139 116.856C408.272 116.822 408.423 116.791 408.592 116.763C408.61 116.765 408.656 116.764 408.73 116.757C408.825 116.735 408.892 116.718 408.931 116.706L409.131 116.655C409.432 116.483 409.737 116.055 410.046 115.372C410.372 114.692 410.661 113.786 410.912 112.654C411.163 111.523 411.438 109.654 411.738 107.049C411.755 106.942 411.782 106.827 411.819 106.705C411.888 106.386 412.056 106.129 412.325 105.934C412.593 105.738 412.9 105.649 413.245 105.667C414.565 105.764 417.064 106.102 420.742 106.68C420.867 106.7 420.989 106.737 421.108 106.792C421.48 106.869 421.77 107.061 421.978 107.368C422.186 107.675 422.251 108.015 422.175 108.387C422.073 108.92 421.894 109.651 421.638 110.58C421.364 111.507 421.188 112.165 421.108 112.555C420.792 113.987 420.368 116.39 419.838 119.765C419.768 120.211 419.581 120.529 419.276 120.719C418.975 120.891 418.646 120.949 418.289 120.893C417.932 120.837 417.636 120.681 417.402 120.425C417.17 120.15 417.09 119.79 417.16 119.344C417.699 115.916 418.13 113.459 418.455 111.974C418.561 111.533 418.746 110.821 419.01 109.838L419.196 109.181C417.003 108.818 415.374 108.59 414.309 108.496C414.083 110.399 413.826 111.978 413.538 113.232C413.259 114.541 412.923 115.632 412.53 116.503C411.974 117.715 411.302 118.551 410.516 119.013C410.197 119.183 409.821 119.307 409.388 119.385C409.37 119.382 409.239 119.398 408.996 119.433C408.901 119.455 408.825 119.47 408.769 119.48ZM425.257 122.016C424.879 121.975 424.576 121.808 424.347 121.516C424.119 121.224 424.025 120.889 424.066 120.511C424.171 119.613 424.324 118.402 424.527 116.879C424.712 115.353 424.884 113.908 425.044 112.542C425.224 111.162 425.367 109.904 425.473 108.768C425.525 108.319 425.694 107.998 425.981 107.805C426.285 107.615 426.608 107.538 426.95 107.573C427.313 107.594 427.62 107.733 427.872 107.992C428.127 108.234 428.228 108.579 428.176 109.028C428.065 110.2 427.904 111.629 427.694 113.316C428.535 113.32 429.21 113.334 429.718 113.359C431.234 113.488 432.414 113.838 433.257 114.409C434.05 114.955 434.602 115.691 434.914 116.618C435.207 117.542 435.207 118.475 434.913 119.417C434.639 120.343 434.092 121.09 433.271 121.656C431.532 122.828 429.145 122.883 426.111 121.821C425.848 121.98 425.563 122.045 425.257 122.016ZM426.956 119.237C429.156 120.021 430.758 120.072 431.762 119.388C432.048 119.195 432.237 118.923 432.329 118.572C432.421 118.22 432.413 117.862 432.306 117.498C432.216 117.136 432.014 116.848 431.7 116.634C431.27 116.347 430.54 116.159 429.511 116.071C429.006 116.028 428.285 116.015 427.349 116.033C427.125 117.809 426.994 118.877 426.956 119.237ZM437.375 122.63C437.465 121.473 437.561 120.4 437.661 119.41C437.77 118.366 437.884 117.469 438.002 116.719C438.077 116.127 438.169 115.483 438.278 114.787C438.387 114.09 438.487 113.402 438.575 112.72C438.682 112.042 438.767 111.442 438.83 110.922C438.898 110.493 439.084 110.184 439.388 109.994C439.692 109.804 440.023 109.737 440.38 109.793C440.74 109.832 441.037 109.979 441.271 110.235C441.505 110.491 441.587 110.843 441.517 111.289L440.901 115.556C442.716 115.767 444.721 116.046 446.917 116.391C447.056 115.388 447.216 114.023 447.396 112.295C447.448 111.846 447.617 111.525 447.904 111.332C448.208 111.142 448.531 111.065 448.873 111.1C449.233 111.139 449.539 111.287 449.791 111.547C450.046 111.788 450.149 112.124 450.099 112.555C449.728 116.083 449.207 119.98 448.536 124.247C448.466 124.693 448.279 125.011 447.975 125.201C447.673 125.373 447.344 125.431 446.987 125.375C446.63 125.319 446.334 125.163 446.1 124.907C445.869 124.633 445.788 124.272 445.858 123.826C446.136 122.058 446.375 120.477 446.576 119.082C444.345 118.731 442.331 118.451 440.534 118.242C440.329 119.783 440.182 121.297 440.095 122.783C440.063 123.217 439.903 123.54 439.614 123.75C439.342 123.964 439.024 124.069 438.658 124.067C438.296 124.046 437.978 123.914 437.705 123.67C437.451 123.429 437.34 123.082 437.375 122.63ZM455.978 126.733C454.818 126.313 453.912 125.677 453.259 124.824C452.609 123.954 452.186 122.982 451.988 121.908C451.809 120.837 451.841 119.763 452.083 118.685C452.297 117.675 452.665 116.727 453.189 115.84C453.692 114.968 454.385 114.226 455.267 113.614C456.168 113.006 457.147 112.712 458.205 112.731C458.371 112.721 458.553 112.731 458.749 112.762C459.081 112.631 459.412 112.619 459.743 112.726L459.899 112.778C460.06 112.803 460.306 112.869 460.636 112.976C460.988 113.068 461.271 113.186 461.486 113.329C462.472 113.923 463.229 114.756 463.756 115.826C464.265 116.894 464.541 117.99 464.584 119.112C464.627 120.235 464.493 121.321 464.182 122.37C463.628 124.149 462.679 125.472 461.335 126.34C459.749 127.353 457.963 127.484 455.978 126.733ZM456.925 124.193C458.082 124.631 459.068 124.585 459.884 124.054C460.657 123.554 461.226 122.728 461.59 121.578C461.823 120.791 461.918 120.011 461.876 119.236C461.833 118.46 461.667 117.767 461.379 117.154C461.094 116.524 460.703 116.042 460.207 115.708C459.911 115.844 459.614 115.871 459.317 115.787C459.281 115.782 459.012 115.685 458.512 115.496C458.354 115.453 458.239 115.426 458.168 115.415C457.437 115.41 456.74 115.767 456.078 116.486C455.419 117.187 454.973 118.105 454.74 119.239C454.486 120.389 454.554 121.415 454.943 122.317C455.313 123.217 455.974 123.842 456.925 124.193Z" fill="white"/>
<defs>
<linearGradient id="paint0_linear_225_34" x1="0" y1="131.718" x2="255.905" y2="131.718" gradientUnits="userSpaceOnUse">
<stop stop-color="#4B4C52"/>
<stop offset="1" stop-color="#A8ABB8"/>
</linearGradient>
<linearGradient id="paint1_linear_225_34" x1="46.6529" y1="185.3" x2="302.558" y2="185.3" gradientUnits="userSpaceOnUse">
<stop stop-color="#9195A4"/>
<stop offset="1" stop-color="#37383E"/>
</linearGradient>
<linearGradient id="paint2_linear_225_34" x1="255.197" y1="86.6242" x2="511.102" y2="86.6242" gradientUnits="userSpaceOnUse">
<stop stop-color="#9195A4"/>
<stop offset="1" stop-color="#37383E"/>
</linearGradient>
</defs>
</svg>
