<svg width="208" height="50" viewBox="0 0 208 50" fill="none" xmlns="http://www.w3.org/2000/svg">
<rect width="208" height="50" rx="20" fill="#40414A"/>
<g clip-path="url(#clip0_27_246)">
<path d="M35.875 13H17.125C15.3992 13 14 14.3992 14 16.125V28.625C14 30.3508 15.3992 31.75 17.125 31.75H21.8125L28.0625 38V31.75H35.875C37.6008 31.75 39 30.3508 39 28.625V16.125C39 14.3992 37.6008 13 35.875 13ZM37.4375 28.625C37.4375 29.4871 36.7363 30.1875 35.875 30.1875H26.5V34.2281L22.4596 30.1875H17.125C16.2637 30.1875 15.5625 29.4871 15.5625 28.625V16.125C15.5625 15.2629 16.2637 14.5625 17.125 14.5625H35.875C36.7363 14.5625 37.4375 15.2629 37.4375 16.125V28.625ZM18.6875 19.25H34.3125V17.6875H18.6875V19.25ZM18.6875 22.375H34.3125V20.8125H18.6875V22.375ZM18.6875 25.5H28.0625V23.9375H18.6875V25.5Z" fill="#FFFAFA"/>
</g>
<path d="M53.3401 21.024C53.2121 21.032 53.0921 21.004 52.9801 20.94C52.8681 20.868 52.7881 20.772 52.7401 20.652C52.5641 20.22 52.3041 19.636 51.9601 18.9L51.2761 17.364L50.6041 15.684C50.6041 15.932 50.6081 16.236 50.6161 16.596C50.6241 16.956 50.6321 17.336 50.6401 17.736C50.6481 18.128 50.6561 18.512 50.6641 18.888C50.6721 19.256 50.6801 19.576 50.6881 19.848C50.6961 20.112 50.7001 20.292 50.7001 20.388C50.7001 20.58 50.6401 20.728 50.5201 20.832C50.4001 20.936 50.2601 20.992 50.1001 21C49.9401 21 49.8001 20.952 49.6801 20.856C49.5601 20.76 49.5001 20.612 49.5001 20.412C49.5001 20.076 49.4921 19.7 49.4761 19.284C49.4681 18.86 49.4561 18.428 49.4401 17.988C49.4241 17.54 49.4121 17.108 49.4041 16.692C49.3961 16.268 49.3961 15.888 49.4041 15.552C49.4041 15.376 49.4041 14.528 49.4041 13.008C49.4121 12.76 49.5281 12.584 49.7521 12.48C49.8881 12.408 50.0321 12.392 50.1841 12.432C50.3361 12.472 50.4561 12.56 50.5441 12.696C50.7841 13.088 51.0081 13.52 51.2161 13.992C51.3601 14.336 51.5041 14.692 51.6481 15.06C51.7921 15.42 51.9241 15.764 52.0441 16.092C52.1721 16.412 52.2841 16.676 52.3801 16.884L53.3041 18.96C53.4321 18.664 53.6281 18.26 53.8921 17.748C54.1481 17.244 54.3081 16.92 54.3721 16.776C55.1801 15 55.7161 13.728 55.9801 12.96C56.0041 12.888 56.0401 12.824 56.0881 12.768C56.1841 12.56 56.3481 12.444 56.5801 12.42C56.7401 12.404 56.8841 12.452 57.0121 12.564C57.1401 12.668 57.2121 12.804 57.2281 12.972C57.2521 13.236 57.2721 13.524 57.2881 13.836C57.3041 14.148 57.3201 14.452 57.3361 14.748C57.3521 15.036 57.3641 15.28 57.3721 15.48C57.3721 15.632 57.3761 15.828 57.3841 16.068C57.3921 16.308 57.3961 16.556 57.3961 16.812C57.3961 17.06 57.3961 17.288 57.3961 17.496C57.4041 17.704 57.4081 17.856 57.4081 17.952V20.412C57.4081 20.612 57.3481 20.764 57.2281 20.868C57.1081 20.964 56.9681 21.012 56.8081 21.012C56.6481 21.012 56.5081 20.964 56.3881 20.868C56.2681 20.764 56.2081 20.612 56.2081 20.412C56.2081 17.988 56.1961 16.432 56.1721 15.744L55.4521 17.28L54.9241 18.336C54.6601 18.856 54.3401 19.604 53.9641 20.58C53.9241 20.724 53.8441 20.836 53.7241 20.916C53.6121 20.996 53.4841 21.032 53.3401 21.024ZM59.5314 20.94C59.3154 20.796 59.2314 20.596 59.2794 20.34C59.2714 20.324 59.2674 20.308 59.2674 20.292C59.2434 20.036 59.2234 19.756 59.2074 19.452C59.1994 19.14 59.1914 18.848 59.1834 18.576C59.1834 18.296 59.1874 18.076 59.1954 17.916C59.1954 17.82 59.1994 17.672 59.2074 17.472C59.2234 17.272 59.2354 17.052 59.2434 16.812C59.2594 16.564 59.2714 16.324 59.2794 16.092C59.2874 15.852 59.2954 15.652 59.3034 15.492C59.3194 15.324 59.3274 15.22 59.3274 15.18C59.3354 15.004 59.3994 14.868 59.5194 14.772C59.6474 14.668 59.7914 14.616 59.9514 14.616C60.1114 14.616 60.2514 14.68 60.3714 14.808C60.4274 14.872 60.4634 15.036 60.4794 15.3C60.4954 15.556 60.4994 15.86 60.4914 16.212C60.4914 16.564 60.4794 16.92 60.4554 17.28C60.4394 17.632 60.4234 17.944 60.4074 18.216C60.3914 18.48 60.3834 18.648 60.3834 18.72L61.2354 17.628C61.9874 16.644 62.5594 15.752 62.9514 14.952C63.0554 14.784 63.2074 14.688 63.4074 14.664C63.4714 14.64 63.5394 14.624 63.6114 14.616C63.7794 14.608 63.9234 14.66 64.0434 14.772C64.1714 14.876 64.2394 15.012 64.2474 15.18C64.2794 15.964 64.2914 16.884 64.2834 17.94C64.2594 19.076 64.2594 19.896 64.2834 20.4C64.2914 20.6 64.2354 20.752 64.1154 20.856C64.0034 20.96 63.8674 21.012 63.7074 21.012C63.5554 21.02 63.4154 20.98 63.2874 20.892C63.1594 20.796 63.0914 20.648 63.0834 20.448C63.0594 19.936 63.0594 19.096 63.0834 17.928V17.148L62.1834 18.36C61.2474 19.576 60.6394 20.384 60.3594 20.784C60.2634 20.92 60.1354 21.004 59.9754 21.036C59.8154 21.068 59.6674 21.036 59.5314 20.94ZM69.3131 20.46C69.2731 19.948 69.2411 19.472 69.2171 19.032C69.1931 18.568 69.1811 18.168 69.1811 17.832C69.1731 17.568 69.1691 17.28 69.1691 16.968C69.1691 16.656 69.1651 16.348 69.1571 16.044C69.1571 15.74 69.1531 15.472 69.1451 15.24C69.1451 15.048 69.2051 14.9 69.3251 14.796C69.4451 14.692 69.5851 14.64 69.7451 14.64C69.9051 14.632 70.0451 14.676 70.1651 14.772C70.2851 14.868 70.3451 15.016 70.3451 15.216L70.3691 17.124C71.1771 17.092 72.0731 17.076 73.0571 17.076C73.0491 16.628 73.0251 16.02 72.9851 15.252C72.9771 15.052 73.0291 14.9 73.1411 14.796C73.2611 14.692 73.3971 14.636 73.5491 14.628C73.7091 14.62 73.8531 14.664 73.9811 14.76C74.1091 14.848 74.1771 14.988 74.1851 15.18C74.2651 16.748 74.3051 18.488 74.3051 20.4C74.3051 20.6 74.2451 20.752 74.1251 20.856C74.0051 20.952 73.8651 21 73.7051 21C73.5451 21 73.4051 20.952 73.2851 20.856C73.1651 20.752 73.1051 20.6 73.1051 20.4C73.1051 19.608 73.1011 18.9 73.0931 18.276C72.0931 18.276 71.1931 18.292 70.3931 18.324C70.4091 19.012 70.4491 19.684 70.5131 20.34C70.5291 20.532 70.4811 20.684 70.3691 20.796C70.2651 20.908 70.1331 20.976 69.9731 21C69.8131 21.016 69.6651 20.98 69.5291 20.892C69.4011 20.804 69.3291 20.66 69.3131 20.46ZM78.006 20.976C77.606 21.032 77.222 20.976 76.854 20.808C76.494 20.632 76.178 20.344 75.906 19.944C75.69 19.624 75.558 19.332 75.51 19.068C75.462 18.796 75.446 18.464 75.462 18.072C75.494 17.264 75.69 16.572 76.05 15.996C76.418 15.412 76.902 15.012 77.502 14.796C78.094 14.572 78.718 14.56 79.374 14.76C80.022 14.96 80.618 15.348 81.162 15.924C81.282 16.052 81.338 16.2 81.33 16.368C81.322 16.536 81.258 16.68 81.138 16.8C81.074 16.864 80.994 16.912 80.898 16.944C80.906 17.016 80.91 17.104 80.91 17.208C80.91 17.272 80.91 17.332 80.91 17.388C80.902 17.452 80.898 17.488 80.898 17.496V17.604C80.906 17.724 80.918 17.86 80.934 18.012C80.942 18.172 80.95 18.288 80.958 18.36C80.958 18.456 80.97 18.572 80.994 18.708C81.018 18.836 81.038 18.928 81.054 18.984C81.126 19.224 81.382 19.56 81.822 19.992C81.958 20.144 82.014 20.3 81.99 20.46C81.974 20.62 81.906 20.756 81.786 20.868C81.674 20.98 81.538 21.04 81.378 21.048C81.226 21.064 81.074 21.004 80.922 20.868C80.434 20.364 80.114 19.932 79.962 19.572C79.93 19.636 79.894 19.692 79.854 19.74C79.63 20.068 79.358 20.344 79.038 20.568C78.718 20.792 78.374 20.928 78.006 20.976ZM77.838 19.752C78.214 19.704 78.546 19.468 78.834 19.044C79.122 18.612 79.346 18.016 79.506 17.256V17.208C79.506 17.176 79.51 17.132 79.518 17.076C79.518 17.02 79.518 16.964 79.518 16.908C79.526 16.756 79.542 16.64 79.566 16.56C79.59 16.48 79.63 16.404 79.686 16.332C79.694 16.316 79.702 16.304 79.71 16.296C79.086 15.864 78.49 15.752 77.922 15.96C77.594 16.08 77.314 16.324 77.082 16.692C76.85 17.052 76.722 17.528 76.698 18.12C76.69 18.32 76.69 18.484 76.698 18.612C76.706 18.732 76.726 18.84 76.758 18.936C76.798 19.032 76.862 19.14 76.95 19.26C77.198 19.636 77.494 19.8 77.838 19.752ZM88.2462 21.12C87.8382 21.12 87.4542 21.036 87.0942 20.868C86.7262 20.7 86.4302 20.488 86.2062 20.232C85.9822 19.968 85.8702 19.708 85.8702 19.452C85.8702 19.284 85.9342 19.144 86.0622 19.032C86.1902 18.912 86.3382 18.852 86.5062 18.852C86.7142 18.852 86.8662 18.932 86.9622 19.092C87.1142 19.364 87.2902 19.568 87.4902 19.704C87.6982 19.84 87.9782 19.908 88.3302 19.908C88.7222 19.908 89.0342 19.828 89.2662 19.668C89.4982 19.508 89.6142 19.308 89.6142 19.068C89.6142 18.844 89.5222 18.672 89.3382 18.552C89.1462 18.432 88.7982 18.348 88.2942 18.3C88.0782 18.284 87.9182 18.22 87.8142 18.108C87.7182 17.996 87.6702 17.864 87.6702 17.712C87.6702 17.544 87.7262 17.4 87.8382 17.28C87.9582 17.16 88.1222 17.1 88.3302 17.1C88.6342 17.1 88.8782 17.036 89.0622 16.908C89.2462 16.772 89.3382 16.592 89.3382 16.368C89.3382 16.2 89.2502 16.06 89.0742 15.948C88.9062 15.836 88.6782 15.78 88.3902 15.78C88.0382 15.78 87.7782 15.856 87.6102 16.008C87.4422 16.16 87.3222 16.388 87.2502 16.692C87.2182 16.836 87.1422 16.948 87.0222 17.028C86.9102 17.1 86.7862 17.136 86.6502 17.136C86.4982 17.136 86.3622 17.084 86.2422 16.98C86.1222 16.868 86.0622 16.732 86.0622 16.572C86.0622 16.196 86.1702 15.86 86.3862 15.564C86.6022 15.276 86.8902 15.052 87.2502 14.892C87.6182 14.724 88.0142 14.64 88.4382 14.64C88.7982 14.64 89.1382 14.708 89.4582 14.844C89.7782 14.988 90.0382 15.192 90.2382 15.456C90.4382 15.72 90.5382 16.024 90.5382 16.368C90.5382 16.712 90.4502 17.012 90.2742 17.268C90.0982 17.516 89.8422 17.68 89.5062 17.76V17.532C89.9062 17.62 90.2222 17.816 90.4542 18.12C90.6942 18.416 90.8142 18.756 90.8142 19.14C90.8142 19.492 90.6982 19.82 90.4662 20.124C90.2342 20.428 89.9182 20.672 89.5182 20.856C89.1262 21.032 88.7022 21.12 88.2462 21.12ZM93.1356 21.192C92.9756 21.24 92.8236 21.22 92.6796 21.132C92.5356 21.052 92.4436 20.932 92.4036 20.772C92.3796 20.684 92.3596 20.6 92.3436 20.52C92.3276 20.48 92.3156 20.44 92.3076 20.4C92.2116 19.92 92.1396 19.428 92.0916 18.924C92.0436 18.412 92.0076 17.8 91.9836 17.088C91.9596 16.376 91.9396 15.888 91.9236 15.624C91.8996 15.576 91.8796 15.524 91.8636 15.468C91.8396 15.356 91.8476 15.244 91.8876 15.132C91.9036 14.996 91.9596 14.876 92.0556 14.772C92.1596 14.668 92.2836 14.608 92.4276 14.592C92.5636 14.584 92.6876 14.612 92.7996 14.676C93.4396 14.572 94.0276 14.528 94.5636 14.544C95.0836 14.552 95.5196 14.624 95.8716 14.76C96.3996 14.96 96.7276 15.284 96.8556 15.732C97.0236 16.38 96.9236 16.916 96.5556 17.34C96.4996 17.412 96.4356 17.48 96.3636 17.544C96.4116 17.568 96.4556 17.6 96.4956 17.64C96.8236 17.872 97.0436 18.152 97.1556 18.48C97.2676 18.8 97.2676 19.124 97.1556 19.452C97.0676 19.74 96.9076 20 96.6756 20.232C96.4516 20.456 96.1876 20.628 95.8836 20.748C95.3556 20.948 94.5516 21.02 93.4716 20.964C93.3836 21.084 93.2716 21.16 93.1356 21.192ZM93.4116 19.752C93.7636 19.784 94.1276 19.796 94.5036 19.788C94.8876 19.772 95.2036 19.716 95.4516 19.62C95.7556 19.5 95.9436 19.324 96.0156 19.092C96.0716 18.916 95.9996 18.752 95.7996 18.6C95.5356 18.408 95.1236 18.324 94.5636 18.348C94.2356 18.364 93.8036 18.424 93.2676 18.528C93.2996 18.984 93.3476 19.392 93.4116 19.752ZM93.1956 17.232C93.9636 17.176 94.5676 17.072 95.0076 16.92C95.3196 16.816 95.5316 16.696 95.6436 16.56C95.7316 16.464 95.7556 16.336 95.7156 16.176C95.6916 16.04 95.6036 15.94 95.4516 15.876C95.2276 15.796 94.9196 15.752 94.5276 15.744C94.1196 15.736 93.6556 15.768 93.1356 15.84C93.1516 16.192 93.1716 16.656 93.1956 17.232ZM98.4088 14.232C98.3048 14.352 98.1928 14.408 98.0728 14.4C97.9528 14.392 97.8488 14.348 97.7608 14.268C97.6728 14.188 97.6208 14.088 97.6048 13.968C97.5888 13.848 97.6328 13.732 97.7368 13.62C97.8168 13.532 97.9328 13.352 98.0848 13.08C97.9648 13.064 97.8648 13.024 97.7848 12.96C97.5928 12.824 97.5008 12.64 97.5088 12.408C97.5168 12.168 97.6528 11.984 97.9168 11.856L98.0968 11.784C98.2008 11.768 98.2768 11.764 98.3248 11.772C98.3728 11.772 98.4368 11.78 98.5168 11.796C98.7088 11.828 98.8688 11.94 98.9968 12.132C99.1328 12.324 99.1808 12.572 99.1408 12.876C99.0928 13.116 99.0128 13.34 98.9008 13.548C98.7728 13.812 98.6088 14.04 98.4088 14.232ZM100.721 20.628C100.665 20.812 100.561 20.932 100.409 20.988C100.265 21.044 100.117 21.048 99.9654 21C99.8214 20.952 99.7054 20.864 99.6174 20.736C99.5374 20.6 99.5294 20.436 99.5934 20.244C99.6014 20.204 99.6254 20.116 99.6654 19.98C99.7134 19.844 99.7494 19.744 99.7734 19.68L99.8694 19.44C99.9174 19.336 99.9774 19.2 100.049 19.032C100.129 18.864 100.205 18.732 100.277 18.636C100.349 18.532 100.425 18.436 100.505 18.348C100.073 18.076 99.8134 17.708 99.7254 17.244C99.6694 16.948 99.6974 16.628 99.8094 16.284C99.9214 15.932 100.073 15.652 100.265 15.444C100.753 14.916 101.509 14.648 102.533 14.64C103.109 14.64 103.813 14.728 104.645 14.904C104.837 14.944 104.973 15.056 105.053 15.24C105.125 15.344 105.161 15.46 105.161 15.588C105.153 15.908 105.113 16.724 105.041 18.036C104.985 19.028 104.965 19.82 104.981 20.412C104.989 20.612 104.933 20.764 104.813 20.868C104.701 20.964 104.565 21.012 104.405 21.012C104.253 21.02 104.113 20.976 103.985 20.88C103.857 20.784 103.789 20.636 103.781 20.436C103.765 19.972 103.773 19.432 103.805 18.816C103.237 18.856 102.725 18.86 102.269 18.828L102.173 18.852C101.749 18.892 101.445 19.044 101.261 19.308L101.165 19.488L101.081 19.644C101.057 19.668 101.025 19.732 100.985 19.836C100.953 19.932 100.929 20.004 100.913 20.052L100.829 20.34C100.781 20.476 100.745 20.572 100.721 20.628ZM103.865 17.628C103.913 16.892 103.941 16.344 103.949 15.984C103.413 15.888 102.941 15.84 102.533 15.84C101.861 15.84 101.401 15.98 101.153 16.26C101.073 16.34 101.005 16.464 100.949 16.632C100.901 16.8 100.885 16.924 100.901 17.004C100.957 17.284 101.285 17.476 101.885 17.58C102.373 17.66 102.981 17.672 103.709 17.616C103.765 17.616 103.817 17.62 103.865 17.628ZM108.602 21.12C108.194 21.12 107.81 21.036 107.45 20.868C107.082 20.7 106.786 20.488 106.562 20.232C106.338 19.968 106.226 19.708 106.226 19.452C106.226 19.284 106.29 19.144 106.418 19.032C106.546 18.912 106.694 18.852 106.862 18.852C107.07 18.852 107.222 18.932 107.318 19.092C107.47 19.364 107.646 19.568 107.846 19.704C108.054 19.84 108.334 19.908 108.686 19.908C109.078 19.908 109.39 19.828 109.622 19.668C109.854 19.508 109.97 19.308 109.97 19.068C109.97 18.844 109.878 18.672 109.694 18.552C109.502 18.432 109.154 18.348 108.65 18.3C108.434 18.284 108.274 18.22 108.17 18.108C108.074 17.996 108.026 17.864 108.026 17.712C108.026 17.544 108.082 17.4 108.194 17.28C108.314 17.16 108.478 17.1 108.686 17.1C108.99 17.1 109.234 17.036 109.418 16.908C109.602 16.772 109.694 16.592 109.694 16.368C109.694 16.2 109.606 16.06 109.43 15.948C109.262 15.836 109.034 15.78 108.746 15.78C108.394 15.78 108.134 15.856 107.966 16.008C107.798 16.16 107.678 16.388 107.606 16.692C107.574 16.836 107.498 16.948 107.378 17.028C107.266 17.1 107.142 17.136 107.006 17.136C106.854 17.136 106.718 17.084 106.598 16.98C106.478 16.868 106.418 16.732 106.418 16.572C106.418 16.196 106.526 15.86 106.742 15.564C106.958 15.276 107.246 15.052 107.606 14.892C107.974 14.724 108.37 14.64 108.794 14.64C109.154 14.64 109.494 14.708 109.814 14.844C110.134 14.988 110.394 15.192 110.594 15.456C110.794 15.72 110.894 16.024 110.894 16.368C110.894 16.712 110.806 17.012 110.63 17.268C110.454 17.516 110.198 17.68 109.862 17.76V17.532C110.262 17.62 110.578 17.816 110.81 18.12C111.05 18.416 111.17 18.756 111.17 19.14C111.17 19.492 111.054 19.82 110.822 20.124C110.59 20.428 110.274 20.672 109.874 20.856C109.482 21.032 109.058 21.12 108.602 21.12ZM116.779 20.808C115.939 19.864 115.231 18.984 114.655 18.168L113.647 19.224L113.635 19.248C113.667 19.616 113.707 19.988 113.755 20.364C113.787 20.556 113.751 20.712 113.647 20.832C113.543 20.944 113.411 21.008 113.251 21.024C113.099 21.048 112.955 21.024 112.819 20.952C112.691 20.872 112.611 20.732 112.579 20.532C112.515 20.084 112.467 19.628 112.435 19.164C112.403 18.684 112.387 18.316 112.387 18.06C112.379 17.772 112.375 17.46 112.375 17.124C112.375 16.78 112.375 16.444 112.375 16.116C112.383 15.78 112.387 15.48 112.387 15.216C112.387 15.016 112.447 14.868 112.567 14.772C112.687 14.668 112.827 14.616 112.987 14.616C113.147 14.616 113.287 14.668 113.407 14.772C113.527 14.868 113.587 15.016 113.587 15.216C113.587 15.464 113.587 15.872 113.587 16.44C113.579 17.016 113.575 17.416 113.575 17.64C115.215 16.104 116.159 15.216 116.407 14.976C116.543 14.832 116.687 14.768 116.839 14.784C116.999 14.8 117.135 14.864 117.247 14.976C117.359 15.088 117.423 15.224 117.439 15.384C117.455 15.536 117.391 15.68 117.247 15.816C116.863 16.208 116.303 16.724 115.567 17.364C116.127 18.18 116.827 19.064 117.667 20.016C117.803 20.16 117.859 20.308 117.835 20.46C117.811 20.612 117.739 20.744 117.619 20.856C117.499 20.96 117.359 21.016 117.199 21.024C117.047 21.032 116.907 20.96 116.779 20.808ZM119.302 23.184C119.118 23.24 118.962 23.224 118.834 23.136C118.706 23.048 118.618 22.928 118.57 22.776C118.522 22.624 118.526 22.476 118.582 22.332C118.646 22.188 118.774 22.088 118.966 22.032C119.046 22.008 119.122 21.988 119.194 21.972C119.258 21.956 119.302 21.944 119.326 21.936H119.398C119.422 21.928 119.446 21.916 119.47 21.9C119.654 21.788 119.89 21.46 120.178 20.916V20.904L120.154 20.856C119.338 19.16 118.674 17.324 118.162 15.348C118.114 15.18 118.13 15.028 118.21 14.892C118.298 14.756 118.418 14.664 118.57 14.616C118.73 14.56 118.886 14.576 119.038 14.664C119.182 14.752 119.274 14.876 119.314 15.036C119.722 16.604 120.226 18.072 120.826 19.44L121.03 18.888C121.198 18.424 121.354 17.952 121.498 17.472C121.642 16.992 121.766 16.548 121.87 16.14C121.974 15.724 122.05 15.388 122.098 15.132C122.13 14.94 122.214 14.808 122.35 14.736C122.486 14.656 122.63 14.628 122.782 14.652C122.942 14.676 123.074 14.748 123.178 14.868C123.282 14.988 123.314 15.148 123.274 15.348C123.202 15.764 123.062 16.344 122.854 17.088C122.646 17.832 122.414 18.568 122.158 19.296C121.846 20.176 121.542 20.9 121.246 21.468C120.846 22.22 120.454 22.708 120.07 22.932C119.966 22.996 119.842 23.048 119.698 23.088C119.642 23.104 119.566 23.124 119.47 23.148C119.382 23.172 119.326 23.184 119.302 23.184ZM124.161 22.836C124.017 22.836 123.901 22.788 123.813 22.692C123.725 22.596 123.681 22.476 123.681 22.332C123.681 22.188 123.749 22.024 123.885 21.84C123.957 21.736 124.013 21.64 124.053 21.552C124.093 21.472 124.113 21.384 124.113 21.288C124.113 21.168 124.081 21 124.017 20.784C123.969 20.608 123.945 20.492 123.945 20.436C123.945 20.276 123.997 20.144 124.101 20.04C124.213 19.928 124.341 19.872 124.485 19.872C124.789 19.872 124.981 20.012 125.061 20.292C125.157 20.668 125.205 20.984 125.205 21.24C125.205 21.416 125.173 21.584 125.109 21.744C125.053 21.912 124.969 22.112 124.857 22.344C124.689 22.672 124.457 22.836 124.161 22.836ZM132.251 20.424C132.251 20.624 132.191 20.772 132.071 20.868C131.951 20.964 131.811 21.008 131.651 21C131.491 21 131.351 20.948 131.231 20.844C131.111 20.74 131.051 20.592 131.051 20.4C131.091 18.32 131.091 16.812 131.051 15.876C130.923 15.876 130.699 15.872 130.379 15.864C130.051 15.856 129.799 15.852 129.623 15.852C129.423 15.852 129.275 15.792 129.179 15.672C129.083 15.552 129.035 15.412 129.035 15.252C129.043 15.092 129.099 14.952 129.203 14.832C129.307 14.712 129.455 14.652 129.647 14.652C131.775 14.692 133.143 14.7 133.751 14.676C133.951 14.668 134.103 14.724 134.207 14.844C134.311 14.956 134.363 15.092 134.363 15.252C134.371 15.404 134.327 15.544 134.231 15.672C134.143 15.8 133.999 15.868 133.799 15.876C133.335 15.892 132.819 15.9 132.251 15.9C132.291 16.852 132.291 18.36 132.251 20.424ZM137.139 20.976C136.739 21.032 136.355 20.976 135.987 20.808C135.627 20.632 135.311 20.344 135.039 19.944C134.823 19.624 134.691 19.332 134.643 19.068C134.595 18.796 134.579 18.464 134.595 18.072C134.627 17.264 134.823 16.572 135.183 15.996C135.551 15.412 136.035 15.012 136.635 14.796C137.227 14.572 137.851 14.56 138.507 14.76C139.155 14.96 139.751 15.348 140.295 15.924C140.415 16.052 140.471 16.2 140.463 16.368C140.455 16.536 140.391 16.68 140.271 16.8C140.207 16.864 140.127 16.912 140.031 16.944C140.039 17.016 140.043 17.104 140.043 17.208C140.043 17.272 140.043 17.332 140.043 17.388C140.035 17.452 140.031 17.488 140.031 17.496V17.604C140.039 17.724 140.051 17.86 140.067 18.012C140.075 18.172 140.083 18.288 140.091 18.36C140.091 18.456 140.103 18.572 140.127 18.708C140.151 18.836 140.171 18.928 140.187 18.984C140.259 19.224 140.515 19.56 140.955 19.992C141.091 20.144 141.147 20.3 141.123 20.46C141.107 20.62 141.039 20.756 140.919 20.868C140.807 20.98 140.671 21.04 140.511 21.048C140.359 21.064 140.207 21.004 140.055 20.868C139.567 20.364 139.247 19.932 139.095 19.572C139.063 19.636 139.027 19.692 138.987 19.74C138.763 20.068 138.491 20.344 138.171 20.568C137.851 20.792 137.507 20.928 137.139 20.976ZM136.971 19.752C137.347 19.704 137.679 19.468 137.967 19.044C138.255 18.612 138.479 18.016 138.639 17.256V17.208C138.639 17.176 138.643 17.132 138.651 17.076C138.651 17.02 138.651 16.964 138.651 16.908C138.659 16.756 138.675 16.64 138.699 16.56C138.723 16.48 138.763 16.404 138.819 16.332C138.827 16.316 138.835 16.304 138.843 16.296C138.219 15.864 137.623 15.752 137.055 15.96C136.727 16.08 136.447 16.324 136.215 16.692C135.983 17.052 135.855 17.528 135.831 18.12C135.823 18.32 135.823 18.484 135.831 18.612C135.839 18.732 135.859 18.84 135.891 18.936C135.931 19.032 135.995 19.14 136.083 19.26C136.331 19.636 136.627 19.8 136.971 19.752ZM147.379 21.12C146.971 21.12 146.587 21.036 146.227 20.868C145.859 20.7 145.563 20.488 145.339 20.232C145.115 19.968 145.003 19.708 145.003 19.452C145.003 19.284 145.067 19.144 145.195 19.032C145.323 18.912 145.471 18.852 145.639 18.852C145.847 18.852 145.999 18.932 146.095 19.092C146.247 19.364 146.423 19.568 146.623 19.704C146.831 19.84 147.111 19.908 147.463 19.908C147.855 19.908 148.167 19.828 148.399 19.668C148.631 19.508 148.747 19.308 148.747 19.068C148.747 18.844 148.655 18.672 148.471 18.552C148.279 18.432 147.931 18.348 147.427 18.3C147.211 18.284 147.051 18.22 146.947 18.108C146.851 17.996 146.803 17.864 146.803 17.712C146.803 17.544 146.859 17.4 146.971 17.28C147.091 17.16 147.255 17.1 147.463 17.1C147.767 17.1 148.011 17.036 148.195 16.908C148.379 16.772 148.471 16.592 148.471 16.368C148.471 16.2 148.383 16.06 148.207 15.948C148.039 15.836 147.811 15.78 147.523 15.78C147.171 15.78 146.911 15.856 146.743 16.008C146.575 16.16 146.455 16.388 146.383 16.692C146.351 16.836 146.275 16.948 146.155 17.028C146.043 17.1 145.919 17.136 145.783 17.136C145.631 17.136 145.495 17.084 145.375 16.98C145.255 16.868 145.195 16.732 145.195 16.572C145.195 16.196 145.303 15.86 145.519 15.564C145.735 15.276 146.023 15.052 146.383 14.892C146.751 14.724 147.147 14.64 147.571 14.64C147.931 14.64 148.271 14.708 148.591 14.844C148.911 14.988 149.171 15.192 149.371 15.456C149.571 15.72 149.671 16.024 149.671 16.368C149.671 16.712 149.583 17.012 149.407 17.268C149.231 17.516 148.975 17.68 148.639 17.76V17.532C149.039 17.62 149.355 17.816 149.587 18.12C149.827 18.416 149.947 18.756 149.947 19.14C149.947 19.492 149.831 19.82 149.599 20.124C149.367 20.428 149.051 20.672 148.651 20.856C148.259 21.032 147.835 21.12 147.379 21.12ZM153.24 20.976C152.84 21.032 152.456 20.976 152.088 20.808C151.728 20.632 151.412 20.344 151.14 19.944C150.924 19.624 150.792 19.332 150.744 19.068C150.696 18.796 150.68 18.464 150.696 18.072C150.728 17.264 150.924 16.572 151.284 15.996C151.652 15.412 152.136 15.012 152.736 14.796C153.328 14.572 153.952 14.56 154.608 14.76C155.256 14.96 155.852 15.348 156.396 15.924C156.516 16.052 156.572 16.2 156.564 16.368C156.556 16.536 156.492 16.68 156.372 16.8C156.308 16.864 156.228 16.912 156.132 16.944C156.14 17.016 156.144 17.104 156.144 17.208C156.144 17.272 156.144 17.332 156.144 17.388C156.136 17.452 156.132 17.488 156.132 17.496V17.604C156.14 17.724 156.152 17.86 156.168 18.012C156.176 18.172 156.184 18.288 156.192 18.36C156.192 18.456 156.204 18.572 156.228 18.708C156.252 18.836 156.272 18.928 156.288 18.984C156.36 19.224 156.616 19.56 157.056 19.992C157.192 20.144 157.248 20.3 157.224 20.46C157.208 20.62 157.14 20.756 157.02 20.868C156.908 20.98 156.772 21.04 156.612 21.048C156.46 21.064 156.308 21.004 156.156 20.868C155.668 20.364 155.348 19.932 155.196 19.572C155.164 19.636 155.128 19.692 155.088 19.74C154.864 20.068 154.592 20.344 154.272 20.568C153.952 20.792 153.608 20.928 153.24 20.976ZM153.072 19.752C153.448 19.704 153.78 19.468 154.068 19.044C154.356 18.612 154.58 18.016 154.74 17.256V17.208C154.74 17.176 154.744 17.132 154.752 17.076C154.752 17.02 154.752 16.964 154.752 16.908C154.76 16.756 154.776 16.64 154.8 16.56C154.824 16.48 154.864 16.404 154.92 16.332C154.928 16.316 154.936 16.304 154.944 16.296C154.32 15.864 153.724 15.752 153.156 15.96C152.828 16.08 152.548 16.324 152.316 16.692C152.084 17.052 151.956 17.528 151.932 18.12C151.924 18.32 151.924 18.484 151.932 18.612C151.94 18.732 151.96 18.84 151.992 18.936C152.032 19.032 152.096 19.14 152.184 19.26C152.432 19.636 152.728 19.8 153.072 19.752ZM159.358 21.192C159.198 21.24 159.046 21.22 158.902 21.132C158.758 21.052 158.666 20.932 158.626 20.772C158.602 20.684 158.582 20.6 158.566 20.52C158.55 20.48 158.538 20.44 158.53 20.4C158.434 19.92 158.362 19.428 158.314 18.924C158.266 18.412 158.23 17.8 158.206 17.088C158.182 16.376 158.162 15.888 158.146 15.624C158.122 15.576 158.102 15.524 158.086 15.468C158.062 15.356 158.07 15.244 158.11 15.132C158.126 14.996 158.182 14.876 158.278 14.772C158.382 14.668 158.506 14.608 158.65 14.592C158.786 14.584 158.91 14.612 159.022 14.676C159.662 14.572 160.25 14.528 160.786 14.544C161.306 14.552 161.742 14.624 162.094 14.76C162.622 14.96 162.95 15.284 163.078 15.732C163.246 16.38 163.146 16.916 162.778 17.34C162.722 17.412 162.658 17.48 162.586 17.544C162.634 17.568 162.678 17.6 162.718 17.64C163.046 17.872 163.266 18.152 163.378 18.48C163.49 18.8 163.49 19.124 163.378 19.452C163.29 19.74 163.13 20 162.898 20.232C162.674 20.456 162.41 20.628 162.106 20.748C161.578 20.948 160.774 21.02 159.694 20.964C159.606 21.084 159.494 21.16 159.358 21.192ZM159.634 19.752C159.986 19.784 160.35 19.796 160.726 19.788C161.11 19.772 161.426 19.716 161.674 19.62C161.978 19.5 162.166 19.324 162.238 19.092C162.294 18.916 162.222 18.752 162.022 18.6C161.758 18.408 161.346 18.324 160.786 18.348C160.458 18.364 160.026 18.424 159.49 18.528C159.522 18.984 159.57 19.392 159.634 19.752ZM159.418 17.232C160.186 17.176 160.79 17.072 161.23 16.92C161.542 16.816 161.754 16.696 161.866 16.56C161.954 16.464 161.978 16.336 161.938 16.176C161.914 16.04 161.826 15.94 161.674 15.876C161.45 15.796 161.142 15.752 160.75 15.744C160.342 15.736 159.878 15.768 159.358 15.84C159.374 16.192 159.394 16.656 159.418 17.232ZM170.967 20.796C170.375 20.092 169.615 19.3 168.687 18.42C168.631 18.412 168.583 18.4 168.543 18.384C168.543 19.04 168.559 19.704 168.591 20.376C168.599 20.576 168.543 20.728 168.423 20.832C168.311 20.936 168.175 20.992 168.015 21C167.863 21.008 167.723 20.968 167.595 20.88C167.467 20.784 167.399 20.64 167.391 20.448C167.359 19.824 167.343 19.12 167.343 18.336H167.139C166.907 18.648 166.567 19.056 166.119 19.56C165.567 20.16 165.207 20.568 165.039 20.784C164.919 20.944 164.779 21.024 164.619 21.024C164.467 21.032 164.327 20.988 164.199 20.892C164.079 20.796 163.999 20.672 163.959 20.52C163.919 20.368 163.959 20.216 164.079 20.064C164.255 19.856 164.639 19.42 165.231 18.756C165.607 18.332 165.891 17.992 166.083 17.736C165.355 17.112 164.695 16.408 164.103 15.624C163.967 15.48 163.911 15.332 163.935 15.18C163.959 15.02 164.027 14.888 164.139 14.784C164.259 14.672 164.395 14.612 164.547 14.604C164.707 14.596 164.855 14.664 164.991 14.808C165.671 15.68 166.419 16.456 167.235 17.136H167.343C167.351 16.08 167.355 15.444 167.355 15.228C167.355 15.028 167.415 14.88 167.535 14.784C167.655 14.68 167.795 14.628 167.955 14.628C168.115 14.628 168.255 14.68 168.375 14.784C168.495 14.88 168.555 15.028 168.555 15.228C168.555 15.452 168.551 16.092 168.543 17.148H168.663C169.207 16.668 169.819 15.9 170.499 14.844C170.627 14.692 170.767 14.616 170.919 14.616C171.079 14.616 171.219 14.668 171.339 14.772C171.459 14.876 171.531 15.004 171.555 15.156C171.587 15.308 171.539 15.46 171.411 15.612C170.787 16.604 170.231 17.328 169.743 17.784C170.599 18.592 171.311 19.34 171.879 20.028C172.007 20.18 172.055 20.332 172.023 20.484C171.999 20.636 171.927 20.764 171.807 20.868C171.687 20.972 171.547 21.024 171.387 21.024C171.235 21.024 171.095 20.948 170.967 20.796ZM177.931 22.416V21H177.631C177.231 21.008 176.659 21.016 175.915 21.024C175.747 21.024 175.535 21.024 175.279 21.024C175.031 21.032 174.783 21.036 174.535 21.036C174.287 21.036 174.071 21.04 173.887 21.048C173.711 21.056 173.603 21.06 173.563 21.06C173.555 21.132 173.551 21.416 173.551 21.912C173.551 22.112 173.491 22.26 173.371 22.356C173.251 22.46 173.111 22.512 172.951 22.512C172.791 22.512 172.651 22.46 172.531 22.356C172.411 22.26 172.351 22.112 172.351 21.912C172.351 21.416 172.363 20.944 172.387 20.496C172.395 20.376 172.435 20.264 172.507 20.16C172.619 19.968 172.791 19.868 173.023 19.86C173.847 18.236 174.259 16.692 174.259 15.228C174.259 15.06 174.315 14.92 174.427 14.808C174.547 14.688 174.691 14.628 174.859 14.628C174.915 14.628 174.971 14.636 175.027 14.652H175.039C175.143 14.644 175.647 14.632 176.551 14.616C176.951 14.608 177.251 14.604 177.451 14.604H177.919C177.943 14.604 177.967 14.608 177.991 14.616C178.015 14.624 178.043 14.632 178.075 14.64C178.187 14.68 178.279 14.748 178.351 14.844C178.407 14.916 178.447 15 178.471 15.096C178.471 15.128 178.475 15.164 178.483 15.204C178.491 15.26 178.495 15.328 178.495 15.408V15.924C178.487 16.228 178.471 16.76 178.447 17.52C178.399 18.88 178.375 19.644 178.375 19.812H178.411C178.443 19.82 178.471 19.824 178.495 19.824C178.567 19.832 178.639 19.852 178.711 19.884C178.855 19.956 178.959 20.072 179.023 20.232C179.047 20.28 179.063 20.336 179.071 20.4C179.087 20.472 179.099 20.564 179.107 20.676C179.123 20.844 179.131 21.068 179.131 21.348V22.416C179.131 22.616 179.071 22.764 178.951 22.86C178.831 22.964 178.691 23.016 178.531 23.016C178.371 23.016 178.231 22.964 178.111 22.86C177.991 22.764 177.931 22.616 177.931 22.416ZM174.367 19.848C175.015 19.832 175.527 19.824 175.903 19.824C176.407 19.816 176.831 19.812 177.175 19.812C177.175 19.58 177.199 18.8 177.247 17.472C177.271 16.728 177.287 16.204 177.295 15.9V15.804C177.087 15.804 176.847 15.808 176.575 15.816C176.111 15.824 175.731 15.832 175.435 15.84C175.347 17.152 174.991 18.488 174.367 19.848ZM180.516 20.94C180.3 20.796 180.216 20.596 180.264 20.34C180.256 20.324 180.252 20.308 180.252 20.292C180.228 20.036 180.208 19.756 180.192 19.452C180.184 19.14 180.176 18.848 180.168 18.576C180.168 18.296 180.172 18.076 180.18 17.916C180.18 17.82 180.184 17.672 180.192 17.472C180.208 17.272 180.22 17.052 180.228 16.812C180.244 16.564 180.256 16.324 180.264 16.092C180.272 15.852 180.28 15.652 180.288 15.492C180.304 15.324 180.312 15.22 180.312 15.18C180.32 15.004 180.384 14.868 180.504 14.772C180.632 14.668 180.776 14.616 180.936 14.616C181.096 14.616 181.236 14.68 181.356 14.808C181.412 14.872 181.448 15.036 181.464 15.3C181.48 15.556 181.484 15.86 181.476 16.212C181.476 16.564 181.464 16.92 181.44 17.28C181.424 17.632 181.408 17.944 181.392 18.216C181.376 18.48 181.368 18.648 181.368 18.72L182.22 17.628C182.972 16.644 183.544 15.752 183.936 14.952C184.04 14.784 184.192 14.688 184.392 14.664C184.456 14.64 184.524 14.624 184.596 14.616C184.764 14.608 184.908 14.66 185.028 14.772C185.156 14.876 185.224 15.012 185.232 15.18C185.264 15.964 185.276 16.884 185.268 17.94C185.244 19.076 185.244 19.896 185.268 20.4C185.276 20.6 185.22 20.752 185.1 20.856C184.988 20.96 184.852 21.012 184.692 21.012C184.54 21.02 184.4 20.98 184.272 20.892C184.144 20.796 184.076 20.648 184.068 20.448C184.044 19.936 184.044 19.096 184.068 17.928V17.148L183.168 18.36C182.232 19.576 181.624 20.384 181.344 20.784C181.248 20.92 181.12 21.004 180.96 21.036C180.8 21.068 180.652 21.036 180.516 20.94ZM49.3201 34.52C49.2561 34.008 49.2161 33.452 49.2001 32.852C49.1921 32.42 49.1881 31.98 49.1881 31.532C49.1961 31.076 49.2041 30.652 49.2121 30.26C49.2201 29.86 49.2241 29.532 49.2241 29.276C49.2241 29.196 49.2401 29.12 49.2721 29.048C49.3041 28.92 49.3721 28.816 49.4761 28.736C49.5881 28.648 49.7121 28.604 49.8481 28.604H52.2721C52.4721 28.604 52.6201 28.664 52.7161 28.784C52.8201 28.904 52.8721 29.044 52.8721 29.204C52.8721 29.364 52.8201 29.504 52.7161 29.624C52.6201 29.744 52.4721 29.804 52.2721 29.804H50.4241C50.4241 30.092 50.4161 30.452 50.4001 30.884C50.3921 31.316 50.3881 31.716 50.3881 32.084C50.3881 32.236 50.3921 32.452 50.4001 32.732C50.4081 33.004 50.4201 33.288 50.4361 33.584C50.4601 33.88 50.4881 34.136 50.5201 34.352C50.5361 34.552 50.4881 34.712 50.3761 34.832C50.2721 34.944 50.1441 35.008 49.9921 35.024C49.8401 35.048 49.6961 35.02 49.5601 34.94C49.4321 34.852 49.3521 34.712 49.3201 34.52ZM55.3589 34.976C54.8229 34.872 54.3829 34.656 54.0389 34.328C53.6949 33.992 53.4429 33.596 53.2829 33.14C53.1309 32.684 53.0709 32.212 53.1029 31.724C53.1269 31.268 53.2229 30.828 53.3909 30.404C53.5509 29.988 53.8029 29.616 54.1469 29.288C54.4989 28.96 54.9069 28.764 55.3709 28.7C55.4429 28.684 55.5229 28.676 55.6109 28.676C55.7469 28.596 55.8909 28.568 56.0429 28.592L56.1149 28.604C56.1869 28.604 56.2989 28.616 56.4509 28.64C56.6109 28.656 56.7429 28.688 56.8469 28.736C57.3189 28.928 57.7069 29.24 58.0109 29.672C58.3069 30.104 58.5029 30.564 58.5989 31.052C58.6949 31.54 58.7109 32.024 58.6469 32.504C58.5269 33.32 58.2029 33.964 57.6749 34.436C57.0509 34.988 56.2789 35.168 55.3589 34.976ZM55.5989 33.8C56.1349 33.912 56.5629 33.824 56.8829 33.536C57.1869 33.264 57.3789 32.864 57.4589 32.336C57.5069 31.976 57.4949 31.628 57.4229 31.292C57.3509 30.956 57.2309 30.664 57.0629 30.416C56.8949 30.16 56.6909 29.976 56.4509 29.864C56.3309 29.944 56.2029 29.976 56.0669 29.96C56.0509 29.96 55.9269 29.936 55.6949 29.888C55.6229 29.88 55.5709 29.876 55.5389 29.876C55.2189 29.924 54.9389 30.128 54.6989 30.488C54.4589 30.84 54.3269 31.272 54.3029 31.784C54.2709 32.304 54.3709 32.748 54.6029 33.116C54.8269 33.484 55.1589 33.712 55.5989 33.8ZM62.1261 34.424C62.1261 34.624 62.0661 34.772 61.9461 34.868C61.8261 34.964 61.6861 35.008 61.5261 35C61.3661 35 61.2261 34.948 61.1061 34.844C60.9861 34.74 60.9261 34.592 60.9261 34.4C60.9661 32.32 60.9661 30.812 60.9261 29.876C60.7981 29.876 60.5741 29.872 60.2541 29.864C59.9261 29.856 59.6741 29.852 59.4981 29.852C59.2981 29.852 59.1501 29.792 59.0541 29.672C58.9581 29.552 58.9101 29.412 58.9101 29.252C58.9181 29.092 58.9741 28.952 59.0781 28.832C59.1821 28.712 59.3301 28.652 59.5221 28.652C61.6501 28.692 63.0181 28.7 63.6261 28.676C63.8261 28.668 63.9781 28.724 64.0821 28.844C64.1861 28.956 64.2381 29.092 64.2381 29.252C64.2461 29.404 64.2021 29.544 64.1061 29.672C64.0181 29.8 63.8741 29.868 63.6741 29.876C63.2101 29.892 62.6941 29.9 62.1261 29.9C62.1661 30.852 62.1661 32.36 62.1261 34.424ZM66.7378 34.976C66.2018 34.872 65.7618 34.656 65.4178 34.328C65.0738 33.992 64.8218 33.596 64.6618 33.14C64.5098 32.684 64.4498 32.212 64.4818 31.724C64.5058 31.268 64.6018 30.828 64.7698 30.404C64.9298 29.988 65.1818 29.616 65.5258 29.288C65.8778 28.96 66.2858 28.764 66.7498 28.7C66.8218 28.684 66.9018 28.676 66.9898 28.676C67.1258 28.596 67.2698 28.568 67.4218 28.592L67.4938 28.604C67.5658 28.604 67.6778 28.616 67.8298 28.64C67.9898 28.656 68.1218 28.688 68.2258 28.736C68.6978 28.928 69.0858 29.24 69.3898 29.672C69.6858 30.104 69.8818 30.564 69.9778 31.052C70.0738 31.54 70.0898 32.024 70.0258 32.504C69.9058 33.32 69.5818 33.964 69.0538 34.436C68.4298 34.988 67.6578 35.168 66.7378 34.976ZM66.9778 33.8C67.5138 33.912 67.9418 33.824 68.2618 33.536C68.5658 33.264 68.7578 32.864 68.8378 32.336C68.8858 31.976 68.8738 31.628 68.8018 31.292C68.7298 30.956 68.6098 30.664 68.4418 30.416C68.2738 30.16 68.0698 29.976 67.8298 29.864C67.7098 29.944 67.5818 29.976 67.4458 29.96C67.4298 29.96 67.3058 29.936 67.0738 29.888C67.0018 29.88 66.9498 29.876 66.9178 29.876C66.5978 29.924 66.3178 30.128 66.0778 30.488C65.8378 30.84 65.7058 31.272 65.6818 31.784C65.6498 32.304 65.7498 32.748 65.9818 33.116C66.2058 33.484 66.5378 33.712 66.9778 33.8ZM72.3114 35.192C72.1514 35.24 71.9994 35.22 71.8554 35.132C71.7114 35.052 71.6194 34.932 71.5794 34.772C71.5554 34.684 71.5354 34.6 71.5194 34.52C71.5034 34.48 71.4914 34.44 71.4834 34.4C71.3874 33.92 71.3154 33.428 71.2674 32.924C71.2194 32.412 71.1834 31.8 71.1594 31.088C71.1354 30.376 71.1154 29.888 71.0994 29.624C71.0754 29.576 71.0554 29.524 71.0394 29.468C71.0154 29.356 71.0234 29.244 71.0634 29.132C71.0794 28.996 71.1354 28.876 71.2314 28.772C71.3354 28.668 71.4594 28.608 71.6034 28.592C71.7394 28.584 71.8634 28.612 71.9754 28.676C72.6154 28.572 73.2034 28.528 73.7394 28.544C74.2594 28.552 74.6954 28.624 75.0474 28.76C75.5754 28.96 75.9034 29.284 76.0314 29.732C76.1994 30.38 76.0994 30.916 75.7314 31.34C75.6754 31.412 75.6114 31.48 75.5394 31.544C75.5874 31.568 75.6314 31.6 75.6714 31.64C75.9994 31.872 76.2194 32.152 76.3314 32.48C76.4434 32.8 76.4434 33.124 76.3314 33.452C76.2434 33.74 76.0834 34 75.8514 34.232C75.6274 34.456 75.3634 34.628 75.0594 34.748C74.5314 34.948 73.7274 35.02 72.6474 34.964C72.5594 35.084 72.4474 35.16 72.3114 35.192ZM72.5874 33.752C72.9394 33.784 73.3034 33.796 73.6794 33.788C74.0634 33.772 74.3794 33.716 74.6274 33.62C74.9314 33.5 75.1194 33.324 75.1914 33.092C75.2474 32.916 75.1754 32.752 74.9754 32.6C74.7114 32.408 74.2994 32.324 73.7394 32.348C73.4114 32.364 72.9794 32.424 72.4434 32.528C72.4754 32.984 72.5234 33.392 72.5874 33.752ZM72.3714 31.232C73.1394 31.176 73.7434 31.072 74.1834 30.92C74.4954 30.816 74.7074 30.696 74.8194 30.56C74.9074 30.464 74.9314 30.336 74.8914 30.176C74.8674 30.04 74.7794 29.94 74.6274 29.876C74.4034 29.796 74.0954 29.752 73.7034 29.744C73.2954 29.736 72.8314 29.768 72.3114 29.84C72.3274 30.192 72.3474 30.656 72.3714 31.232ZM77.6566 34.424C77.6566 34.04 77.6286 33.236 77.5726 32.012C77.5246 30.724 77.5086 29.772 77.5246 29.156C77.5326 28.964 77.6006 28.82 77.7286 28.724C77.8566 28.628 77.9966 28.584 78.1486 28.592C78.3086 28.592 78.4446 28.644 78.5566 28.748C78.6766 28.852 78.7326 29.004 78.7246 29.204C78.7086 29.78 78.7246 30.696 78.7726 31.952C78.8286 33.136 78.8566 33.96 78.8566 34.424C78.8566 34.624 78.7966 34.776 78.6766 34.88C78.5566 34.976 78.4166 35.024 78.2566 35.024C78.0966 35.024 77.9566 34.976 77.8366 34.88C77.7166 34.776 77.6566 34.624 77.6566 34.424ZM78.5086 26.624C78.6526 26.76 78.7166 26.904 78.7006 27.056C78.6846 27.208 78.6206 27.344 78.5086 27.464C78.3966 27.576 78.2606 27.64 78.1006 27.656C77.9486 27.672 77.8046 27.608 77.6686 27.464C77.5246 27.328 77.4606 27.184 77.4766 27.032C77.4926 26.872 77.5566 26.736 77.6686 26.624C77.7886 26.512 77.9246 26.448 78.0766 26.432C78.2286 26.416 78.3726 26.48 78.5086 26.624ZM84.7801 35.192C84.6201 35.24 84.4681 35.22 84.3241 35.132C84.1801 35.052 84.0881 34.932 84.0481 34.772C84.0241 34.684 84.0041 34.6 83.9881 34.52C83.9721 34.48 83.9601 34.44 83.9521 34.4C83.8561 33.92 83.7841 33.428 83.7361 32.924C83.6881 32.412 83.6521 31.8 83.6281 31.088C83.6041 30.376 83.5841 29.888 83.5681 29.624C83.5441 29.576 83.5241 29.524 83.5081 29.468C83.4841 29.356 83.4921 29.244 83.5321 29.132C83.5481 28.996 83.6041 28.876 83.7001 28.772C83.8041 28.668 83.9281 28.608 84.0721 28.592C84.2081 28.584 84.3321 28.612 84.4441 28.676C85.0841 28.572 85.6721 28.528 86.2081 28.544C86.7281 28.552 87.1641 28.624 87.5161 28.76C88.0441 28.96 88.3721 29.284 88.5001 29.732C88.6681 30.38 88.5681 30.916 88.2001 31.34C88.1441 31.412 88.0801 31.48 88.0081 31.544C88.0561 31.568 88.1001 31.6 88.1401 31.64C88.4681 31.872 88.6881 32.152 88.8001 32.48C88.9121 32.8 88.9121 33.124 88.8001 33.452C88.7121 33.74 88.5521 34 88.3201 34.232C88.0961 34.456 87.8321 34.628 87.5281 34.748C87.0001 34.948 86.1961 35.02 85.1161 34.964C85.0281 35.084 84.9161 35.16 84.7801 35.192ZM85.0561 33.752C85.4081 33.784 85.7721 33.796 86.1481 33.788C86.5321 33.772 86.8481 33.716 87.0961 33.62C87.4001 33.5 87.5881 33.324 87.6601 33.092C87.7161 32.916 87.6441 32.752 87.4441 32.6C87.1801 32.408 86.7681 32.324 86.2081 32.348C85.8801 32.364 85.4481 32.424 84.9121 32.528C84.9441 32.984 84.9921 33.392 85.0561 33.752ZM84.8401 31.232C85.6081 31.176 86.2121 31.072 86.6521 30.92C86.9641 30.816 87.1761 30.696 87.2881 30.56C87.3761 30.464 87.4001 30.336 87.3601 30.176C87.3361 30.04 87.2481 29.94 87.0961 29.876C86.8721 29.796 86.5641 29.752 86.1721 29.744C85.7641 29.736 85.3001 29.768 84.7801 29.84C84.7961 30.192 84.8161 30.656 84.8401 31.232ZM92.0334 34.976C91.6334 35.032 91.2494 34.976 90.8814 34.808C90.5214 34.632 90.2054 34.344 89.9334 33.944C89.7174 33.624 89.5854 33.332 89.5374 33.068C89.4894 32.796 89.4734 32.464 89.4894 32.072C89.5214 31.264 89.7174 30.572 90.0774 29.996C90.4454 29.412 90.9294 29.012 91.5294 28.796C92.1214 28.572 92.7454 28.56 93.4014 28.76C94.0494 28.96 94.6454 29.348 95.1894 29.924C95.3094 30.052 95.3654 30.2 95.3574 30.368C95.3494 30.536 95.2854 30.68 95.1654 30.8C95.1014 30.864 95.0214 30.912 94.9254 30.944C94.9334 31.016 94.9374 31.104 94.9374 31.208C94.9374 31.272 94.9374 31.332 94.9374 31.388C94.9294 31.452 94.9254 31.488 94.9254 31.496V31.604C94.9334 31.724 94.9454 31.86 94.9614 32.012C94.9694 32.172 94.9774 32.288 94.9854 32.36C94.9854 32.456 94.9974 32.572 95.0214 32.708C95.0454 32.836 95.0654 32.928 95.0814 32.984C95.1534 33.224 95.4094 33.56 95.8494 33.992C95.9854 34.144 96.0414 34.3 96.0174 34.46C96.0014 34.62 95.9334 34.756 95.8134 34.868C95.7014 34.98 95.5654 35.04 95.4054 35.048C95.2534 35.064 95.1014 35.004 94.9494 34.868C94.4614 34.364 94.1414 33.932 93.9894 33.572C93.9574 33.636 93.9214 33.692 93.8814 33.74C93.6574 34.068 93.3854 34.344 93.0654 34.568C92.7454 34.792 92.4014 34.928 92.0334 34.976ZM91.8654 33.752C92.2414 33.704 92.5734 33.468 92.8614 33.044C93.1494 32.612 93.3734 32.016 93.5334 31.256V31.208C93.5334 31.176 93.5374 31.132 93.5454 31.076C93.5454 31.02 93.5454 30.964 93.5454 30.908C93.5534 30.756 93.5694 30.64 93.5934 30.56C93.6174 30.48 93.6574 30.404 93.7134 30.332C93.7214 30.316 93.7294 30.304 93.7374 30.296C93.1134 29.864 92.5174 29.752 91.9494 29.96C91.6214 30.08 91.3414 30.324 91.1094 30.692C90.8774 31.052 90.7494 31.528 90.7254 32.12C90.7174 32.32 90.7174 32.484 90.7254 32.612C90.7334 32.732 90.7534 32.84 90.7854 32.936C90.8254 33.032 90.8894 33.14 90.9774 33.26C91.2254 33.636 91.5214 33.8 91.8654 33.752ZM100.347 34.916C100.203 34.988 100.051 35 99.8912 34.952C99.7392 34.896 99.6232 34.792 99.5432 34.64C99.2472 34.048 98.8232 33.076 98.2712 31.724C98.2712 31.94 98.2672 32.36 98.2592 32.984C98.2512 33.616 98.2472 34.092 98.2472 34.412C98.2472 34.612 98.1872 34.764 98.0672 34.868C97.9472 34.964 97.8072 35.012 97.6472 35.012C97.4872 35.012 97.3472 34.964 97.2272 34.868C97.1072 34.764 97.0472 34.612 97.0472 34.412C97.0472 34.084 97.0552 33.544 97.0712 32.792C97.0792 32.048 97.0792 31.408 97.0712 30.872C97.0712 30.336 97.0552 29.808 97.0232 29.288C97.0152 29.12 97.0632 28.976 97.1672 28.856C97.2792 28.728 97.4192 28.66 97.5872 28.652H97.6112C97.7552 28.596 97.8992 28.6 98.0432 28.664C98.1872 28.72 98.2912 28.816 98.3552 28.952L99.2912 31.076L100.119 32.936L100.227 32.696C101.235 30.792 101.771 29.764 101.835 29.612C101.891 29.468 101.943 29.32 101.991 29.168L102.003 29.156C102.019 29.02 102.079 28.904 102.183 28.808C102.295 28.712 102.423 28.66 102.567 28.652C102.735 28.644 102.879 28.696 102.999 28.808C103.119 28.92 103.183 29.06 103.191 29.228C103.199 29.532 103.219 29.964 103.251 30.524C103.283 31.028 103.303 31.436 103.311 31.748C103.351 32.764 103.351 33.668 103.311 34.46C103.303 34.66 103.235 34.808 103.107 34.904C102.979 34.992 102.835 35.028 102.675 35.012C102.523 35.004 102.387 34.948 102.267 34.844C102.155 34.74 102.103 34.588 102.111 34.388C102.151 33.612 102.151 32.748 102.111 31.796V31.676L101.895 32.06C101.727 32.34 101.535 32.72 101.319 33.2L100.743 34.532C100.695 34.628 100.627 34.704 100.539 34.76C100.491 34.824 100.427 34.876 100.347 34.916ZM113.232 36.416V35H112.932C112.532 35.008 111.96 35.016 111.216 35.024C111.048 35.024 110.836 35.024 110.58 35.024C110.332 35.032 110.084 35.036 109.836 35.036C109.588 35.036 109.372 35.04 109.188 35.048C109.012 35.056 108.904 35.06 108.864 35.06C108.856 35.132 108.852 35.416 108.852 35.912C108.852 36.112 108.792 36.26 108.672 36.356C108.552 36.46 108.412 36.512 108.252 36.512C108.092 36.512 107.952 36.46 107.832 36.356C107.712 36.26 107.652 36.112 107.652 35.912C107.652 35.416 107.664 34.944 107.688 34.496C107.696 34.376 107.736 34.264 107.808 34.16C107.92 33.968 108.092 33.868 108.324 33.86C109.148 32.236 109.56 30.692 109.56 29.228C109.56 29.06 109.616 28.92 109.728 28.808C109.848 28.688 109.992 28.628 110.16 28.628C110.216 28.628 110.272 28.636 110.328 28.652H110.34C110.444 28.644 110.948 28.632 111.852 28.616C112.252 28.608 112.552 28.604 112.752 28.604H113.22C113.244 28.604 113.268 28.608 113.292 28.616C113.316 28.624 113.344 28.632 113.376 28.64C113.488 28.68 113.58 28.748 113.652 28.844C113.708 28.916 113.748 29 113.772 29.096C113.772 29.128 113.776 29.164 113.784 29.204C113.792 29.26 113.796 29.328 113.796 29.408V29.924C113.788 30.228 113.772 30.76 113.748 31.52C113.7 32.88 113.676 33.644 113.676 33.812H113.712C113.744 33.82 113.772 33.824 113.796 33.824C113.868 33.832 113.94 33.852 114.012 33.884C114.156 33.956 114.26 34.072 114.324 34.232C114.348 34.28 114.364 34.336 114.372 34.4C114.388 34.472 114.4 34.564 114.408 34.676C114.424 34.844 114.432 35.068 114.432 35.348V36.416C114.432 36.616 114.372 36.764 114.252 36.86C114.132 36.964 113.992 37.016 113.832 37.016C113.672 37.016 113.532 36.964 113.412 36.86C113.292 36.764 113.232 36.616 113.232 36.416ZM109.668 33.848C110.316 33.832 110.828 33.824 111.204 33.824C111.708 33.816 112.132 33.812 112.476 33.812C112.476 33.58 112.5 32.8 112.548 31.472C112.572 30.728 112.588 30.204 112.596 29.9V29.804C112.388 29.804 112.148 29.808 111.876 29.816C111.412 29.824 111.032 29.832 110.736 29.84C110.648 31.152 110.292 32.488 109.668 33.848ZM117.293 34.976C116.757 34.872 116.317 34.656 115.973 34.328C115.629 33.992 115.377 33.596 115.217 33.14C115.065 32.684 115.005 32.212 115.037 31.724C115.061 31.268 115.157 30.828 115.325 30.404C115.485 29.988 115.737 29.616 116.081 29.288C116.433 28.96 116.841 28.764 117.305 28.7C117.377 28.684 117.457 28.676 117.545 28.676C117.681 28.596 117.825 28.568 117.977 28.592L118.049 28.604C118.121 28.604 118.233 28.616 118.385 28.64C118.545 28.656 118.677 28.688 118.781 28.736C119.253 28.928 119.641 29.24 119.945 29.672C120.241 30.104 120.437 30.564 120.533 31.052C120.629 31.54 120.645 32.024 120.581 32.504C120.461 33.32 120.137 33.964 119.609 34.436C118.985 34.988 118.213 35.168 117.293 34.976ZM117.533 33.8C118.069 33.912 118.497 33.824 118.817 33.536C119.121 33.264 119.313 32.864 119.393 32.336C119.441 31.976 119.429 31.628 119.357 31.292C119.285 30.956 119.165 30.664 118.997 30.416C118.829 30.16 118.625 29.976 118.385 29.864C118.265 29.944 118.137 29.976 118.001 29.96C117.985 29.96 117.861 29.936 117.629 29.888C117.557 29.88 117.505 29.876 117.473 29.876C117.153 29.924 116.873 30.128 116.633 30.488C116.393 30.84 116.261 31.272 116.237 31.784C116.205 32.304 116.305 32.748 116.537 33.116C116.761 33.484 117.093 33.712 117.533 33.8ZM121.87 34.448C121.87 32.224 121.818 30.632 121.714 29.672C121.706 29.576 121.718 29.484 121.75 29.396C121.742 29.356 121.738 29.316 121.738 29.276C121.73 29.108 121.782 28.964 121.894 28.844C122.006 28.724 122.146 28.66 122.314 28.652C122.722 28.636 123.454 28.628 124.51 28.628C125.07 28.628 125.518 28.632 125.854 28.64C126.054 28.648 126.214 28.656 126.334 28.664C126.406 28.672 126.466 28.68 126.514 28.688C126.554 28.696 126.594 28.708 126.634 28.724C126.882 28.804 127.03 28.992 127.078 29.288C127.086 29.344 127.094 29.416 127.102 29.504C127.11 29.64 127.114 29.824 127.114 30.056C127.114 30.432 127.106 30.956 127.09 31.628C127.082 31.924 127.07 32.28 127.054 32.696C127.038 33.048 127.026 33.392 127.018 33.728C127.01 34.056 127.006 34.28 127.006 34.4C127.006 34.6 126.946 34.752 126.826 34.856C126.706 34.952 126.566 35 126.406 35C126.246 35 126.106 34.952 125.986 34.856C125.866 34.752 125.806 34.6 125.806 34.4C125.806 34.304 125.81 34.1 125.818 33.788C125.826 33.58 125.834 33.344 125.842 33.08C125.85 32.808 125.858 32.544 125.866 32.288C125.874 32.024 125.882 31.792 125.89 31.592C125.906 30.936 125.914 30.424 125.914 30.056V29.852C125.89 29.852 125.858 29.848 125.818 29.84C125.498 29.832 125.062 29.828 124.51 29.828C123.998 29.828 123.474 29.832 122.938 29.84C123.026 30.776 123.07 32.312 123.07 34.448C123.07 34.648 123.01 34.8 122.89 34.904C122.77 35 122.63 35.048 122.47 35.048C122.31 35.048 122.17 35 122.05 34.904C121.93 34.8 121.87 34.648 121.87 34.448ZM130.511 34.976C129.975 34.872 129.535 34.656 129.191 34.328C128.847 33.992 128.595 33.596 128.435 33.14C128.283 32.684 128.223 32.212 128.255 31.724C128.279 31.268 128.375 30.828 128.543 30.404C128.703 29.988 128.955 29.616 129.299 29.288C129.651 28.96 130.059 28.764 130.523 28.7C130.595 28.684 130.675 28.676 130.763 28.676C130.899 28.596 131.043 28.568 131.195 28.592L131.267 28.604C131.339 28.604 131.451 28.616 131.603 28.64C131.763 28.656 131.895 28.688 131.999 28.736C132.471 28.928 132.859 29.24 133.163 29.672C133.459 30.104 133.655 30.564 133.751 31.052C133.847 31.54 133.863 32.024 133.799 32.504C133.679 33.32 133.355 33.964 132.827 34.436C132.203 34.988 131.431 35.168 130.511 34.976ZM130.751 33.8C131.287 33.912 131.715 33.824 132.035 33.536C132.339 33.264 132.531 32.864 132.611 32.336C132.659 31.976 132.647 31.628 132.575 31.292C132.503 30.956 132.383 30.664 132.215 30.416C132.047 30.16 131.843 29.976 131.603 29.864C131.483 29.944 131.355 29.976 131.219 29.96C131.203 29.96 131.079 29.936 130.847 29.888C130.775 29.88 130.723 29.876 130.691 29.876C130.371 29.924 130.091 30.128 129.851 30.488C129.611 30.84 129.479 31.272 129.455 31.784C129.423 32.304 129.523 32.748 129.755 33.116C129.979 33.484 130.311 33.712 130.751 33.8ZM138.281 34.916C138.137 34.988 137.985 35 137.825 34.952C137.673 34.896 137.557 34.792 137.477 34.64C137.181 34.048 136.757 33.076 136.205 31.724C136.205 31.94 136.201 32.36 136.193 32.984C136.185 33.616 136.181 34.092 136.181 34.412C136.181 34.612 136.121 34.764 136.001 34.868C135.881 34.964 135.741 35.012 135.581 35.012C135.421 35.012 135.281 34.964 135.161 34.868C135.041 34.764 134.981 34.612 134.981 34.412C134.981 34.084 134.989 33.544 135.005 32.792C135.013 32.048 135.013 31.408 135.005 30.872C135.005 30.336 134.989 29.808 134.957 29.288C134.949 29.12 134.997 28.976 135.101 28.856C135.213 28.728 135.353 28.66 135.521 28.652H135.545C135.689 28.596 135.833 28.6 135.977 28.664C136.121 28.72 136.225 28.816 136.289 28.952L137.225 31.076L138.053 32.936L138.161 32.696C139.169 30.792 139.705 29.764 139.769 29.612C139.825 29.468 139.877 29.32 139.925 29.168L139.937 29.156C139.953 29.02 140.013 28.904 140.117 28.808C140.229 28.712 140.357 28.66 140.501 28.652C140.669 28.644 140.813 28.696 140.933 28.808C141.053 28.92 141.117 29.06 141.125 29.228C141.133 29.532 141.153 29.964 141.185 30.524C141.217 31.028 141.237 31.436 141.245 31.748C141.285 32.764 141.285 33.668 141.245 34.46C141.237 34.66 141.169 34.808 141.041 34.904C140.913 34.992 140.769 35.028 140.609 35.012C140.457 35.004 140.321 34.948 140.201 34.844C140.089 34.74 140.037 34.588 140.045 34.388C140.085 33.612 140.085 32.748 140.045 31.796V31.676L139.829 32.06C139.661 32.34 139.469 32.72 139.253 33.2L138.677 34.532C138.629 34.628 138.561 34.704 138.473 34.76C138.425 34.824 138.361 34.876 138.281 34.916ZM144.691 34.976C144.155 34.872 143.715 34.656 143.371 34.328C143.027 33.992 142.775 33.596 142.615 33.14C142.463 32.684 142.403 32.212 142.435 31.724C142.459 31.268 142.555 30.828 142.723 30.404C142.883 29.988 143.135 29.616 143.479 29.288C143.831 28.96 144.239 28.764 144.703 28.7C144.775 28.684 144.855 28.676 144.943 28.676C145.079 28.596 145.223 28.568 145.375 28.592L145.447 28.604C145.519 28.604 145.631 28.616 145.783 28.64C145.943 28.656 146.075 28.688 146.179 28.736C146.651 28.928 147.039 29.24 147.343 29.672C147.639 30.104 147.835 30.564 147.931 31.052C148.027 31.54 148.043 32.024 147.979 32.504C147.859 33.32 147.535 33.964 147.007 34.436C146.383 34.988 145.611 35.168 144.691 34.976ZM144.931 33.8C145.467 33.912 145.895 33.824 146.215 33.536C146.519 33.264 146.711 32.864 146.791 32.336C146.839 31.976 146.827 31.628 146.755 31.292C146.683 30.956 146.563 30.664 146.395 30.416C146.227 30.16 146.023 29.976 145.783 29.864C145.663 29.944 145.535 29.976 145.399 29.96C145.383 29.96 145.259 29.936 145.027 29.888C144.955 29.88 144.903 29.876 144.871 29.876C144.551 29.924 144.271 30.128 144.031 30.488C143.791 30.84 143.659 31.272 143.635 31.784C143.603 32.304 143.703 32.748 143.935 33.116C144.159 33.484 144.491 33.712 144.931 33.8ZM149.304 34.52C149.24 34.008 149.2 33.452 149.184 32.852C149.176 32.42 149.172 31.98 149.172 31.532C149.18 31.076 149.188 30.652 149.196 30.26C149.204 29.86 149.208 29.532 149.208 29.276C149.208 29.196 149.224 29.12 149.256 29.048C149.288 28.92 149.356 28.816 149.46 28.736C149.572 28.648 149.696 28.604 149.832 28.604H152.256C152.456 28.604 152.604 28.664 152.7 28.784C152.804 28.904 152.856 29.044 152.856 29.204C152.856 29.364 152.804 29.504 152.7 29.624C152.604 29.744 152.456 29.804 152.256 29.804H150.408C150.408 30.092 150.4 30.452 150.384 30.884C150.376 31.316 150.372 31.716 150.372 32.084C150.372 32.236 150.376 32.452 150.384 32.732C150.392 33.004 150.404 33.288 150.42 33.584C150.444 33.88 150.472 34.136 150.504 34.352C150.52 34.552 150.472 34.712 150.36 34.832C150.256 34.944 150.128 35.008 149.976 35.024C149.824 35.048 149.68 35.02 149.544 34.94C149.416 34.852 149.336 34.712 149.304 34.52ZM156.38 34.424C156.38 34.624 156.32 34.772 156.2 34.868C156.08 34.964 155.94 35.008 155.78 35C155.62 35 155.48 34.948 155.36 34.844C155.24 34.74 155.18 34.592 155.18 34.4C155.22 32.32 155.22 30.812 155.18 29.876C155.052 29.876 154.828 29.872 154.508 29.864C154.18 29.856 153.928 29.852 153.752 29.852C153.552 29.852 153.404 29.792 153.308 29.672C153.212 29.552 153.164 29.412 153.164 29.252C153.172 29.092 153.228 28.952 153.332 28.832C153.436 28.712 153.584 28.652 153.776 28.652C155.904 28.692 157.272 28.7 157.88 28.676C158.08 28.668 158.232 28.724 158.336 28.844C158.44 28.956 158.492 29.092 158.492 29.252C158.5 29.404 158.456 29.544 158.36 29.672C158.272 29.8 158.128 29.868 157.928 29.876C157.464 29.892 156.948 29.9 156.38 29.9C156.42 30.852 156.42 32.36 156.38 34.424ZM159.75 34.94C159.534 34.796 159.45 34.596 159.498 34.34C159.49 34.324 159.486 34.308 159.486 34.292C159.462 34.036 159.442 33.756 159.426 33.452C159.418 33.14 159.41 32.848 159.402 32.576C159.402 32.296 159.406 32.076 159.414 31.916C159.414 31.82 159.418 31.672 159.426 31.472C159.442 31.272 159.454 31.052 159.462 30.812C159.478 30.564 159.49 30.324 159.498 30.092C159.506 29.852 159.514 29.652 159.522 29.492C159.538 29.324 159.546 29.22 159.546 29.18C159.554 29.004 159.618 28.868 159.738 28.772C159.866 28.668 160.01 28.616 160.17 28.616C160.33 28.616 160.47 28.68 160.59 28.808C160.646 28.872 160.682 29.036 160.698 29.3C160.714 29.556 160.718 29.86 160.71 30.212C160.71 30.564 160.698 30.92 160.674 31.28C160.658 31.632 160.642 31.944 160.626 32.216C160.61 32.48 160.602 32.648 160.602 32.72L161.454 31.628C162.206 30.644 162.778 29.752 163.17 28.952C163.274 28.784 163.426 28.688 163.626 28.664C163.69 28.64 163.758 28.624 163.83 28.616C163.998 28.608 164.142 28.66 164.262 28.772C164.39 28.876 164.458 29.012 164.466 29.18C164.498 29.964 164.51 30.884 164.502 31.94C164.478 33.076 164.478 33.896 164.502 34.4C164.51 34.6 164.454 34.752 164.334 34.856C164.222 34.96 164.086 35.012 163.926 35.012C163.774 35.02 163.634 34.98 163.506 34.892C163.378 34.796 163.31 34.648 163.302 34.448C163.278 33.936 163.278 33.096 163.302 31.928V31.148L162.402 32.36C161.466 33.576 160.858 34.384 160.578 34.784C160.482 34.92 160.354 35.004 160.194 35.036C160.034 35.068 159.886 35.036 159.75 34.94ZM166.022 32.408C165.998 31.88 165.986 31.32 165.986 30.728C165.978 30.328 165.974 29.896 165.974 29.432C165.982 28.968 165.99 28.524 165.998 28.1C166.006 27.676 166.01 27.316 166.01 27.02C166.01 26.82 166.07 26.672 166.19 26.576C166.31 26.472 166.45 26.42 166.61 26.42C166.77 26.42 166.91 26.472 167.03 26.576C167.15 26.672 167.21 26.82 167.21 27.02C167.21 27.396 167.206 27.952 167.198 28.688C167.182 29.432 167.174 30.096 167.174 30.68C167.182 31.264 167.198 31.824 167.222 32.36C167.23 32.552 167.174 32.7 167.054 32.804C166.942 32.908 166.806 32.964 166.646 32.972C166.494 32.98 166.354 32.94 166.226 32.852C166.098 32.756 166.03 32.608 166.022 32.408ZM166.934 34.016C167.078 34.152 167.142 34.296 167.126 34.448C167.11 34.6 167.046 34.736 166.934 34.856C166.822 34.968 166.686 35.032 166.526 35.048C166.374 35.064 166.23 35 166.094 34.856C165.95 34.72 165.886 34.576 165.902 34.424C165.918 34.264 165.982 34.128 166.094 34.016C166.214 33.904 166.35 33.84 166.502 33.824C166.654 33.808 166.798 33.872 166.934 34.016Z" fill="white"/>
<defs>
<clipPath id="clip0_27_246">
<rect width="25" height="25" fill="white" transform="translate(14 13)"/>
</clipPath>
</defs>
</svg>
