<svg width="50" height="50" viewBox="0 0 50 50" fill="none" xmlns="http://www.w3.org/2000/svg">
<path d="M47.2496 2.75039C45.4165 0.916912 43.208 0 40.6257 0H9.37507C6.79281 0 4.58429 0.916912 2.75044 2.75039C0.916927 4.58422 0 6.79259 0 9.37492V40.6247C0 43.2068 0.916927 45.4154 2.75044 47.2493C4.58429 49.0831 6.79281 50 9.37507 50H40.6254C43.2077 50 45.4162 49.0831 47.2492 47.2493C49.0831 45.4154 50 43.207 50 40.6247V9.37492C49.9999 6.79259 49.083 4.58388 47.2496 2.75039ZM40.95 37.9528C40.4943 38.9509 39.4689 39.8193 37.8742 40.5576C36.279 41.2958 34.8626 41.6649 33.6253 41.6649C33.278 41.6649 32.9089 41.6381 32.5184 41.5838C32.1278 41.5292 31.7974 41.4753 31.5261 41.421C31.255 41.3667 30.8964 41.2693 30.452 41.128C30.0067 40.9873 29.6863 40.8784 29.4917 40.8026C29.2958 40.7269 28.938 40.5912 28.4176 40.396C27.8966 40.2001 27.5707 40.0808 27.4413 40.0382C23.8823 38.7354 20.4041 36.3866 17.008 32.9905C13.6118 29.5936 11.2625 26.1163 9.96032 22.5578C9.91722 22.4275 9.79785 22.1019 9.60231 21.5813C9.40711 21.0608 9.27109 20.7025 9.19515 20.5074C9.11967 20.3121 9.01101 19.9919 8.86986 19.5474C8.72882 19.1024 8.63145 18.7446 8.57706 18.473C8.52256 18.2021 8.46875 17.8714 8.41436 17.4806C8.36009 17.0899 8.33307 16.7205 8.33307 16.3735C8.33307 15.1365 8.70214 13.7205 9.44018 12.1254C10.1781 10.5306 11.046 9.50524 12.0444 9.04941C13.1947 8.5718 14.2906 8.33305 15.3324 8.33305C15.5708 8.33305 15.7446 8.35494 15.8529 8.39826C15.9615 8.44216 16.1406 8.63701 16.3903 8.98431C16.64 9.3316 16.9112 9.7709 17.2041 10.3027C17.4971 10.8345 17.7846 11.35 18.0667 11.8489C18.3488 12.348 18.6202 12.8414 18.8807 13.3301C19.1411 13.818 19.3038 14.1277 19.3688 14.2574C19.4339 14.3665 19.5751 14.5723 19.7919 14.8764C20.0088 15.18 20.1719 15.4509 20.2803 15.6899C20.3886 15.9286 20.443 16.1566 20.443 16.3735C20.443 16.6995 20.2203 17.0954 19.7755 17.5616C19.3305 18.0282 18.8422 18.4571 18.3104 18.8478C17.7786 19.2385 17.2905 19.6564 16.8456 20.1013C16.401 20.5458 16.1784 20.9093 16.1784 21.1915C16.1784 21.3435 16.2163 21.5224 16.2924 21.7285C16.3683 21.9351 16.4389 22.1033 16.504 22.2332C16.5691 22.3633 16.6724 22.5479 16.8132 22.7869C16.9543 23.0259 17.0467 23.1776 17.0898 23.2429C18.2832 25.3912 19.6561 27.2414 21.2074 28.7932C22.7594 30.3453 24.6093 31.7175 26.758 32.9111C26.8227 32.9549 26.9749 33.0469 27.2146 33.1882C27.453 33.3287 27.6379 33.4317 27.7679 33.4968C27.8982 33.5619 28.0659 33.6326 28.2724 33.708C28.4789 33.7837 28.6579 33.8219 28.8105 33.8219C29.1566 33.8219 29.6342 33.4641 30.2425 32.7481C30.85 32.0314 31.4689 31.3208 32.0983 30.6154C32.7272 29.9107 33.2367 29.5581 33.6281 29.5581C33.845 29.5581 34.0725 29.612 34.3121 29.7204C34.551 29.8288 34.8217 29.992 35.1253 30.2089C35.4296 30.4266 35.6357 30.5671 35.7442 30.6331L37.4687 31.5761C38.619 32.1841 39.5793 32.721 40.3499 33.1876C41.1206 33.6543 41.5384 33.9742 41.6037 34.1475C41.6469 34.2559 41.668 34.43 41.668 34.6688C41.6672 35.7095 41.4283 36.8056 40.95 37.9528Z" fill="#40414A"/>
</svg>
